<svg width="869" height="436" viewBox="0 0 869 436" fill="none" xmlns="http://www.w3.org/2000/svg">
<mask id="mask0_39_3771" style="mask-type:luminance" maskUnits="userSpaceOnUse" x="0" y="0" width="869" height="436">
<path d="M869 0H0V435.527H869V0Z" fill="white"/>
</mask>
<g mask="url(#mask0_39_3771)">
<path d="M853.162 435.526H637.478V368.163C687.74 320.354 745.055 353.275 748.845 388.826C805.862 351.687 859.633 381.414 853.162 435.526Z" fill="#404EED"/>
<path d="M236.921 435.51H35.2373C43.9098 420.141 51.0597 410.96 60.3775 409.339C68.6529 407.899 78.4011 412.483 91.9228 424.145C91.8069 415.492 93.313 387.088 116.748 369.934C128.433 361.38 142.038 358.95 153.16 363.432C157.393 365.115 161.139 367.825 164.058 371.321C166.977 374.816 168.977 378.986 169.876 383.45C197.217 364.11 210.623 368.726 221.646 377.377C232.668 386.03 237.833 410.266 236.921 435.51Z" fill="#808AFF"/>
<path d="M656.21 288.726H185.531V435.527H656.21V288.726Z" fill="#5865F2"/>
<path d="M185.531 334.053L656.226 296.185V288.726H185.531V334.053Z" fill="#4B59F2"/>
<path d="M656.212 288.726H652.785V435.527H656.212V288.726Z" fill="#3543DE"/>
<path d="M613.744 288.726H610.317V435.527H613.744V288.726Z" fill="#3543DE"/>
<path d="M571.257 288.726H567.83V435.527H571.257V288.726Z" fill="#3543DE"/>
<path d="M528.789 288.726H525.364V435.527H528.789V288.726Z" fill="#3543DE"/>
<path d="M486.303 288.726H482.878V435.527H486.303V288.726Z" fill="#3543DE"/>
<path d="M443.837 288.726H440.41V435.527H443.837V288.726Z" fill="#3543DE"/>
<path d="M401.35 288.726H397.923V435.527H401.35V288.726Z" fill="#3543DE"/>
<path d="M358.863 288.726H355.438V435.527H358.863V288.726Z" fill="#3543DE"/>
<path d="M316.395 288.726H312.971V435.527H316.395V288.726Z" fill="#3543DE"/>
<path d="M273.914 288.726H270.487V435.527H273.914V288.726Z" fill="#3543DE"/>
<path d="M231.442 288.726H228.016V435.527H231.442V288.726Z" fill="#3543DE"/>
<path d="M188.957 288.726H185.531V435.527H188.957V288.726Z" fill="#3543DE"/>
<path d="M313.237 152.972C308.818 138.199 306.468 131.186 314.478 126.834C322.49 122.483 346.719 125.511 358.072 128.174C369.426 130.838 371.115 133.733 363.666 144.816L313.237 152.972Z" fill="#FFE75C"/>
<path d="M308.088 285.068C306.333 241.345 307.391 205.133 308.881 185.809C301.617 181.078 298.239 177.325 296.815 175.354C296.52 174.956 296.359 174.471 296.359 173.974C296.359 173.477 296.52 172.992 296.815 172.591C308.402 158.25 318.15 145.759 328.428 139.888C338.706 134.014 352.707 132.541 375.05 154.776C375.175 154.899 375.274 155.045 375.342 155.207C375.41 155.369 375.445 155.542 375.445 155.719C375.445 155.893 375.41 156.068 375.342 156.23C375.274 156.39 375.175 156.538 375.05 156.662C372.153 159.441 369.407 161.625 369.407 161.625C373.976 169.697 380.546 182.039 380.546 182.039H385.675C389.001 182.037 392.19 183.354 394.546 185.698C396.905 188.04 398.236 191.222 398.254 194.544C398.254 204.586 396.019 216.68 391.286 232.213C412.107 249.121 407.141 284.97 407.141 284.97L308.088 285.068Z" fill="#29CC7A"/>
<path d="M391.353 232.296C392.031 230.079 392.644 227.944 393.223 225.878L376.938 234.911C376.938 234.911 351.151 217.506 307.757 206.671C307.013 226.788 306.847 254.033 308.088 285.068L407.094 284.97C407.094 284.97 412.109 249.121 391.353 232.296Z" fill="#8CD9FF"/>
<path d="M395.56 236.332C394.29 234.868 392.894 233.518 391.39 232.296C392.068 230.079 392.68 227.944 393.259 225.878L376.939 234.911C376.939 234.911 351.155 217.506 307.758 206.671C307.66 209.219 307.577 211.865 307.512 214.628C340.727 228.343 358.503 251.917 360.654 285.019H385.181C389.502 266.026 392.945 249.435 395.56 236.332Z" fill="#BAE8FF"/>
<path d="M320.884 194.115C321.021 194.117 321.159 194.082 321.28 194.016C321.401 193.965 321.51 193.887 321.599 193.79C321.687 193.694 321.753 193.579 321.794 193.453L331.178 163.063C331.25 162.827 331.228 162.57 331.113 162.35C330.997 162.13 330.802 161.966 330.566 161.89C330.324 161.816 330.063 161.841 329.841 161.96C329.617 162.077 329.451 162.278 329.375 162.519L320.288 191.898C316.36 190.244 312.594 188.233 309.034 185.893H308.884C308.884 186.588 308.769 187.298 308.718 188.044C312.485 190.386 316.438 192.416 320.537 194.115C320.65 194.137 320.769 194.137 320.884 194.115Z" fill="black"/>
<path d="M360.985 145.214L322.406 148.093C365.618 156.314 367.422 157.421 360.985 145.214Z" fill="black"/>
<path d="M382.464 258.417L378.294 220.121C378.22 219.439 377.889 218.811 377.369 218.363C376.852 217.915 376.182 217.681 375.498 217.705L371.377 217.853L369.522 214.314C368.994 213.307 368.11 212.534 367.042 212.142C365.976 211.752 364.801 211.77 363.747 212.195C362.641 212.633 361.752 213.481 361.263 214.562C353.187 231.965 349.148 260.584 348.438 266.045C348.405 266.299 348.464 266.558 348.602 266.776C348.742 266.994 348.953 267.156 349.198 267.234L372.369 274.712C372.505 274.753 372.646 274.759 372.786 274.733C372.924 274.706 373.053 274.646 373.164 274.558C373.275 274.472 373.361 274.359 373.419 274.229C373.476 274.1 373.503 273.96 373.495 273.818L372.585 262.934L381.223 260.171C381.605 260.075 381.94 259.845 382.168 259.522C382.394 259.202 382.501 258.809 382.464 258.417Z" fill="#EB459F"/>
<path d="M358.883 266.242H358.784C358.642 266.23 358.505 266.189 358.379 266.123C358.252 266.057 358.141 265.967 358.051 265.858C357.96 265.749 357.892 265.624 357.849 265.488C357.808 265.352 357.794 265.209 357.806 265.067L361.366 227.747C361.391 227.462 361.531 227.199 361.75 227.016C361.97 226.833 362.256 226.745 362.541 226.771C362.825 226.796 363.088 226.936 363.273 227.155C363.456 227.375 363.544 227.661 363.517 227.944L359.959 265.266C359.934 265.533 359.809 265.782 359.61 265.963C359.411 266.143 359.152 266.244 358.883 266.242Z" fill="#D11583"/>
<path d="M351.114 172.396C352.598 171.796 352.848 168.961 351.675 166.064C350.504 163.168 348.351 161.306 346.868 161.906C345.385 162.506 345.134 165.341 346.307 168.238C347.478 171.133 349.631 172.996 351.114 172.396Z" fill="black"/>
<path d="M355.984 184.885H355.836C355.219 184.875 354.615 184.719 354.073 184.431C353.529 184.143 353.06 183.733 352.707 183.229C352.132 182.21 351.793 181.074 351.717 179.905C351.639 178.738 351.823 177.567 352.259 176.481C353.633 172.195 357.224 168.838 360.32 169.019C360.933 169.032 361.532 169.19 362.073 169.475C362.613 169.763 363.079 170.174 363.431 170.673C364.006 171.694 364.345 172.83 364.423 173.997C364.499 175.166 364.314 176.337 363.879 177.424C362.537 181.658 359.145 184.885 355.984 184.885ZM360.17 171.154C358.252 171.154 355.47 173.502 354.328 177.109C354.003 177.88 353.849 178.712 353.874 179.55C353.9 180.386 354.106 181.206 354.478 181.956C354.636 182.19 354.848 182.383 355.094 182.518C355.343 182.652 355.618 182.726 355.901 182.734C357.82 182.734 360.651 180.417 361.826 176.779C362.149 176.004 362.301 175.168 362.272 174.328C362.243 173.489 362.036 172.666 361.66 171.914C361.508 171.678 361.296 171.482 361.048 171.349C360.799 171.215 360.52 171.148 360.236 171.154H360.17Z" fill="white"/>
<path d="M371.989 184.885H371.842C371.225 184.875 370.621 184.721 370.077 184.433C369.534 184.146 369.066 183.733 368.713 183.229C368.138 182.21 367.799 181.074 367.722 179.905C367.644 178.738 367.829 177.567 368.265 176.481C369.639 172.195 373.23 168.838 376.31 169.019C376.924 169.034 377.526 169.19 378.068 169.477C378.611 169.765 379.081 170.174 379.437 170.673C380.012 171.694 380.351 172.83 380.429 173.997C380.505 175.166 380.32 176.337 379.884 177.424C378.526 181.658 375.085 184.885 371.989 184.885ZM376.16 171.154C374.257 171.154 371.476 173.502 370.317 177.109C369.995 177.882 369.843 178.714 369.871 179.55C369.9 180.388 370.11 181.208 370.484 181.956C370.64 182.192 370.851 182.385 371.098 182.521C371.346 182.656 371.624 182.73 371.907 182.734C373.826 182.734 376.657 180.417 377.832 176.779C378.155 176.004 378.307 175.168 378.278 174.328C378.249 173.489 378.042 172.666 377.666 171.914C377.514 171.678 377.302 171.482 377.053 171.349C376.805 171.215 376.526 171.148 376.244 171.154H376.16Z" fill="white"/>
<path d="M367.318 171.819C368.343 171.404 368.263 168.816 367.139 166.038C366.013 163.261 364.271 161.344 363.246 161.759C362.221 162.174 362.301 164.763 363.424 167.54C364.55 170.318 366.292 172.234 367.318 171.819Z" fill="black"/>
<path d="M377.782 201.063C369.456 201.088 361.376 198.236 354.911 192.989C348.191 187.498 350.872 186.803 355.108 186.754C359.346 186.703 379.52 187.383 385.396 188.274C391.271 189.168 392.247 200.617 377.782 201.063Z" fill="#912869"/>
<path d="M377.782 201.063C369.456 201.088 361.376 198.236 354.911 192.989C348.191 187.498 350.872 186.803 355.108 186.754C359.346 186.703 379.52 187.383 385.396 188.274C391.271 189.168 392.247 200.617 377.782 201.063Z" fill="#611B46"/>
<path d="M377.352 214.248C377.083 214.248 376.824 214.15 376.624 213.969C376.425 213.788 376.302 213.54 376.275 213.272L375.879 209.252C375.852 208.96 375.942 208.669 376.127 208.441C376.322 208.225 376.596 208.093 376.887 208.077C379.78 207.876 382.598 207.077 385.164 205.729C385.288 205.659 385.423 205.614 385.565 205.597C385.707 205.581 385.848 205.591 385.986 205.63C386.122 205.669 386.251 205.733 386.362 205.821C386.473 205.91 386.568 206.018 386.637 206.142C386.705 206.265 386.75 206.403 386.767 206.542C386.783 206.684 386.773 206.828 386.734 206.964C386.697 207.101 386.631 207.229 386.543 207.339C386.457 207.452 386.346 207.545 386.222 207.615C383.712 208.936 380.98 209.788 378.163 210.129L378.461 213.057C378.488 213.342 378.403 213.626 378.225 213.848C378.044 214.072 377.785 214.215 377.502 214.248H377.352Z" fill="black"/>
<path d="M381.754 200.601C375.944 194.976 368.068 190.674 353.437 191.732C366.015 203.247 379.007 201.328 381.754 200.601Z" fill="#EB459F"/>
<path d="M369.774 174.379H363.237V176.546H369.774V174.379Z" fill="white"/>
<path d="M353.287 177.853C353.151 177.857 353.014 177.831 352.89 177.771L324.92 166.472C324.501 166.31 324.047 166.25 323.601 166.299C323.153 166.351 322.724 166.507 322.352 166.76C321.978 167.012 321.674 167.351 321.46 167.748C321.247 168.144 321.134 168.586 321.13 169.036C321.134 169.57 321.292 170.092 321.586 170.54C321.88 170.985 322.297 171.337 322.786 171.55L324.622 172.378C324.752 172.436 324.869 172.52 324.965 172.625C325.062 172.728 325.138 172.849 325.187 172.982C325.238 173.116 325.261 173.256 325.257 173.397C325.251 173.541 325.218 173.679 325.16 173.808C325.101 173.938 325.019 174.055 324.914 174.151C324.811 174.248 324.688 174.324 324.556 174.375C324.423 174.425 324.281 174.447 324.139 174.443C323.998 174.439 323.858 174.406 323.728 174.346L321.892 173.519C321.103 173.149 320.425 172.576 319.928 171.859C319.431 171.144 319.131 170.31 319.059 169.441C318.987 168.572 319.145 167.699 319.517 166.912C319.889 166.123 320.462 165.447 321.179 164.95C321.849 164.506 322.615 164.231 323.412 164.146C324.211 164.062 325.019 164.173 325.764 164.471L353.735 175.77C353.998 175.879 354.207 176.089 354.32 176.352C354.431 176.615 354.435 176.91 354.33 177.175C354.248 177.383 354.104 177.56 353.917 177.681C353.731 177.802 353.511 177.864 353.287 177.853Z" fill="white"/>
<path d="M347.463 163.776C347.178 163.776 346.904 163.661 346.703 163.459C346.502 163.258 346.387 162.985 346.387 162.699C346.387 162.414 346.502 162.141 346.703 161.939C346.904 161.738 347.178 161.625 347.463 161.625C349.524 161.672 351.578 161.399 353.554 160.813C353.826 160.723 354.124 160.742 354.382 160.865C354.641 160.988 354.843 161.206 354.943 161.475C354.99 161.609 355.011 161.75 355.003 161.892C354.997 162.034 354.96 162.171 354.898 162.299C354.836 162.426 354.75 162.541 354.645 162.636C354.538 162.73 354.415 162.802 354.282 162.849C352.071 163.511 349.77 163.825 347.463 163.776Z" fill="black"/>
<path d="M363.665 163.774C363.378 163.77 363.105 163.653 362.903 163.449C362.702 163.246 362.589 162.971 362.589 162.683C362.589 162.397 362.702 162.124 362.903 161.923C363.107 161.721 363.38 161.608 363.665 161.608C364.84 161.635 366.007 161.391 367.074 160.896C367.195 160.822 367.33 160.774 367.47 160.752C367.612 160.731 367.754 160.74 367.891 160.774C368.029 160.809 368.158 160.873 368.271 160.959C368.382 161.046 368.477 161.152 368.547 161.278C368.618 161.399 368.666 161.532 368.686 161.672C368.705 161.812 368.697 161.956 368.662 162.091C368.627 162.229 368.565 162.356 368.479 162.469C368.395 162.582 368.288 162.677 368.166 162.749C366.776 163.46 365.227 163.813 363.665 163.774Z" fill="black"/>
<path d="M316.943 149.086C355.539 148.654 368.549 144.272 379.637 140.285C390.726 136.297 389.568 133.203 381.126 133.452C372.687 133.701 343.839 144.85 316.943 149.086Z" fill="#FFE75C"/>
<path d="M307.425 218.004L307.242 228.658L312.489 226.573C312.489 226.573 340.707 214.811 347.46 213.172C352.691 211.898 360.452 214.694 370.134 218.367C379.817 222.041 377.201 225.397 374.206 228.674C371.211 231.949 371.309 231.602 355.388 231.602C325.084 253.505 315.667 266.341 303.369 266.341C295.889 266.341 289.484 263.034 284.734 248.31C280.348 234.646 288.789 227.002 307.425 218.004Z" fill="#29CC7A"/>
<path d="M413.232 230.197L396.964 210.66L369.406 238.219L388.937 254.465C388.74 255.182 388.717 255.936 388.869 256.663C389.021 257.391 389.346 258.073 389.814 258.65C392.777 261.594 401.399 257.822 408.963 250.213C416.527 242.603 420.349 234.051 417.386 231.088C416.813 230.626 416.137 230.306 415.416 230.15C414.695 229.995 413.947 230.012 413.232 230.197Z" fill="#FFE591"/>
<path d="M386.848 228.082C394.462 220.473 398.994 212.664 396.972 210.641C394.948 208.619 387.136 213.149 379.522 220.76C371.909 228.37 367.377 236.179 369.398 238.2C371.422 240.224 379.235 235.694 386.848 228.082Z" fill="#FFE591"/>
<path d="M385.011 226.242C391.902 219.353 396.545 212.829 395.382 211.666C394.217 210.503 387.688 215.142 380.8 222.03C373.91 228.916 369.267 235.441 370.429 236.606C371.594 237.769 378.123 233.128 385.011 226.242Z" fill="black"/>
<path d="M411.73 221.891C416.412 222.569 418.201 226.854 416.346 232.397C416.145 232.999 415.791 233.537 415.319 233.962C414.846 234.385 414.273 234.681 413.653 234.819C413.032 234.954 412.387 234.928 411.781 234.741C411.173 234.554 410.624 234.215 410.189 233.753C409.129 232.608 408.484 231.141 408.361 229.586C408.237 228.031 408.642 226.48 409.511 225.184L411.73 221.891Z" fill="#29CC7A"/>
<path d="M403.633 218.665C403.109 222.497 401.624 226.133 399.315 229.237C398.818 229.96 398.592 230.833 398.674 231.706C398.754 232.582 399.14 233.397 399.76 234.018L400.572 234.811C400.855 235.096 401.194 235.322 401.566 235.476C401.938 235.63 402.337 235.71 402.739 235.71C403.142 235.71 403.543 235.63 403.914 235.476C404.286 235.322 404.623 235.096 404.909 234.811C408.216 231.854 410.527 227.949 411.528 223.629C412.886 217.788 408.598 213.702 401.234 215.721L403.633 218.665Z" fill="#29CC7A"/>
<path d="M316.943 149.102L330.083 148.026L361.811 141.774L353.916 133.982H316.197L316.943 149.102Z" fill="#FFE75C"/>
<path d="M380.775 189.02C378.674 188.837 376.025 188.673 373.229 188.523C374.107 193.055 376.274 195.471 378.195 194.694C380.114 193.916 380.66 189.963 380.775 189.02Z" fill="white"/>
<path d="M357.493 187.977C358.453 193.222 360.488 195.952 362.243 195.009C363.997 194.066 364.56 189.863 364.823 188.16C361.729 188.061 359.147 187.993 357.493 187.977Z" fill="white"/>
<path d="M673.609 293.042H175.439C174.293 293.042 173.194 292.588 172.384 291.778C171.574 290.969 171.119 289.87 171.119 288.725C171.119 287.579 171.574 286.482 172.384 285.671C173.194 284.861 174.293 284.407 175.439 284.407H673.609C674.753 284.407 675.852 284.861 676.664 285.671C677.473 286.482 677.927 287.579 677.927 288.725C677.927 289.87 677.473 290.969 676.664 291.778C675.852 292.588 674.753 293.042 673.609 293.042Z" fill="#2835BD"/>
<path d="M370.036 236.018C370.098 236.238 370.225 236.433 370.4 236.581C371.84 237.358 378.178 232.809 384.865 226.126L385.015 225.96L380.76 221.808L377.45 218.367L372.933 218.498L364.076 215.191L363.696 215.968C367.421 217.208 368.216 230.825 370.036 236.018Z" fill="#EB459F"/>
<path d="M371.396 217.853C373.258 221.539 374.914 225.321 376.362 229.185C376.432 229.364 376.551 229.516 376.707 229.625C376.863 229.734 377.048 229.795 377.239 229.797C377.348 229.822 377.461 229.822 377.57 229.797C377.687 229.758 377.796 229.693 377.888 229.611C377.981 229.526 378.055 229.426 378.108 229.313C378.159 229.202 378.19 229.078 378.194 228.955C378.198 228.83 378.178 228.707 378.133 228.589C378.018 228.294 375.7 222.057 373.549 217.837L371.396 217.853Z" fill="#D11583"/>
<path d="M372.667 263.033H372.485L364.21 265.498C364.033 265.533 363.873 265.62 363.745 265.745C363.616 265.87 363.528 266.03 363.488 266.207C363.451 266.382 363.464 266.565 363.527 266.733C363.591 266.9 363.7 267.045 363.846 267.152L371.162 273.603C371.338 273.749 371.56 273.831 371.79 273.835C371.924 273.833 372.055 273.804 372.176 273.749C372.3 273.695 372.409 273.617 372.501 273.521C372.661 273.33 372.743 273.083 372.727 272.835C372.713 272.586 372.602 272.352 372.419 272.181L366.377 266.871L372.848 264.936L372.667 263.033Z" fill="#D11583"/>
<path d="M291.686 236.647C291.446 236.639 291.216 236.551 291.031 236.399C290.846 236.247 290.716 236.037 290.663 235.805C290.607 235.571 290.632 235.326 290.729 235.109C290.827 234.891 290.996 234.71 291.205 234.597C291.205 234.597 296.867 231.785 306.498 227.3C306.627 227.24 306.765 227.207 306.907 227.201C307.049 227.195 307.19 227.216 307.322 227.265C307.455 227.312 307.577 227.388 307.681 227.483C307.786 227.579 307.87 227.694 307.93 227.822C307.99 227.949 308.024 228.089 308.031 228.231C308.037 228.37 308.014 228.512 307.967 228.645C307.918 228.777 307.844 228.9 307.747 229.005C307.653 229.108 307.538 229.192 307.408 229.254C297.81 233.736 292.216 236.499 292.167 236.532C292.015 236.602 291.852 236.643 291.686 236.647Z" fill="black"/>
<path d="M315.634 148.506C315.377 148.506 315.127 148.414 314.93 148.247C314.734 148.081 314.603 147.851 314.56 147.596C314.535 147.456 314.539 147.312 314.572 147.175C314.605 147.035 314.665 146.906 314.747 146.789C314.831 146.674 314.936 146.577 315.057 146.501C315.178 146.427 315.312 146.378 315.453 146.355C332.466 143.641 349.33 140.069 365.981 135.652C366.26 135.582 366.556 135.623 366.802 135.769C367.051 135.915 367.232 136.153 367.306 136.43C367.372 136.71 367.324 137.006 367.176 137.252C367.028 137.499 366.79 137.679 366.511 137.753C347.676 142.501 338.376 144.652 315.817 148.44L315.634 148.506Z" fill="#FFC619"/>
<path d="M379.719 240.17L391.437 250.907C391.784 251.231 392.232 251.428 392.707 251.467C393.181 251.507 393.656 251.385 394.052 251.122C394.317 250.948 394.541 250.714 394.706 250.44C394.87 250.167 394.971 249.861 395.001 249.543C395.03 249.226 394.989 248.906 394.88 248.606C394.769 248.308 394.595 248.037 394.367 247.815L382.946 236.879C382.607 236.549 382.168 236.341 381.695 236.29C381.225 236.238 380.75 236.347 380.348 236.598L380.033 236.781C379.754 236.953 379.516 237.19 379.343 237.471C379.168 237.75 379.062 238.069 379.033 238.398C379.002 238.726 379.047 239.057 379.166 239.365C379.285 239.673 379.475 239.949 379.719 240.17Z" fill="#FFB119"/>
<path d="M409.029 232.511C408.812 232.518 408.596 232.454 408.417 232.329C408.181 232.166 408.021 231.916 407.967 231.634C407.916 231.353 407.975 231.061 408.136 230.825C410.017 228.343 411.19 225.399 411.527 222.303C411.544 222.164 411.587 222.026 411.657 221.901C411.725 221.777 411.819 221.666 411.93 221.578C412.043 221.49 412.17 221.426 412.308 221.387C412.446 221.348 412.587 221.338 412.729 221.354C412.871 221.373 413.009 221.418 413.132 221.49C413.255 221.56 413.364 221.654 413.45 221.767C413.537 221.88 413.6 222.01 413.637 222.147C413.674 222.285 413.682 222.429 413.664 222.568C413.288 226.007 411.998 229.28 409.923 232.047C409.824 232.193 409.691 232.312 409.535 232.392C409.379 232.472 409.204 232.514 409.029 232.511Z" fill="black"/>
<path d="M503.187 81.4744C504.173 76.7801 501.062 72.1537 496.241 71.1429C491.419 70.1322 486.712 73.1172 485.726 77.8114C484.74 82.5057 487.851 87.1321 492.672 88.1429C497.494 89.1536 502.202 86.1686 503.187 81.4744Z" fill="#2A39D4"/>
<path d="M562.718 162.353C570.596 162.716 580.046 166.042 591.964 179.159C598.583 172.542 601.893 174.198 610.864 181.955C619.833 189.715 638.999 204.173 643.767 209.085C648.533 213.999 652.173 224.471 639.214 232.345C626.255 240.219 603.168 225.728 591.087 217.309C579.003 208.888 562.718 199.111 562.718 199.111V162.353Z" fill="#2331B5"/>
<path d="M607.303 178.979C610.455 184.117 613.095 189.552 615.182 195.206C617.732 202.982 614.553 207.549 608.232 212.824C602.455 217.623 599.228 216.943 595.867 214.264C595.672 214.108 595.423 214.036 595.174 214.065C594.926 214.094 594.7 214.219 594.544 214.412C594.464 214.509 594.406 214.62 594.369 214.739C594.334 214.858 594.324 214.983 594.338 215.107C594.351 215.23 594.39 215.349 594.451 215.458C594.513 215.567 594.595 215.661 594.692 215.737C596.407 217.243 598.587 218.112 600.865 218.201C603.497 218.201 606.278 216.91 609.44 214.281C614.983 209.648 620.147 204.354 616.969 194.629C615.753 191.108 614.26 187.689 612.501 184.404C611.819 183.093 610.886 181.931 609.754 180.979L607.303 178.979Z" fill="#3442D9"/>
<path d="M610.716 227.83C610.492 227.828 610.272 227.758 610.087 227.631C609.525 227.234 596.101 217.706 590.226 212.065C590.008 211.867 589.874 211.59 589.86 211.296C589.844 211 589.946 210.713 590.144 210.493C590.341 210.273 590.618 210.142 590.912 210.125C591.208 210.111 591.497 210.214 591.715 210.411C597.509 215.886 611.246 225.695 611.378 225.796C611.495 225.878 611.591 225.981 611.667 226.102C611.741 226.223 611.793 226.357 611.815 226.497C611.838 226.636 611.834 226.78 611.801 226.918C611.768 227.055 611.71 227.185 611.626 227.3C611.534 227.46 611.402 227.594 611.242 227.686C611.082 227.779 610.901 227.828 610.716 227.83Z" fill="black"/>
<path d="M533.599 159.281C561.557 151.3 578.395 124.441 571.209 99.2874C564.022 74.1357 535.53 60.2173 507.572 68.1986C479.614 76.1798 462.777 103.041 469.963 128.192C477.149 153.344 505.641 167.262 533.599 159.281Z" fill="#FF78B9"/>
<path d="M483.89 110.143C483.89 120.532 488.855 129.745 495.028 130.721C500.456 131.582 502.724 126.206 502.907 116.18C502.907 113.567 503.088 110.954 503.254 108.355C503.866 98.9935 500.524 93.9809 494.979 93.1037C488.871 92.1278 483.89 99.7536 483.89 110.143Z" fill="white"/>
<path d="M529.732 110.837C528.657 109.432 528.023 107.737 527.912 105.97C527.799 104.204 528.214 102.443 529.103 100.912C537.676 86.2545 545.555 85.743 551.264 86.0224C557.552 86.3552 561.195 91.6473 556.56 105.032C563.181 112.179 560.383 118.712 550.966 119.638C542.857 120.466 536.534 119.821 529.732 110.837Z" fill="#D11583"/>
<path d="M591.486 254.763C592.844 219.261 581.555 214.727 580.429 204.206C579.305 193.686 578.262 179.392 566.626 164.006C566.626 164.006 567.934 149.665 568.713 139.987C568.746 139.609 568.69 139.231 568.555 138.877C568.419 138.524 568.203 138.208 567.924 137.949C567.647 137.692 567.314 137.503 566.95 137.394C566.589 137.285 566.206 137.261 565.833 137.322C558.256 138.495 550.587 138.949 542.926 138.68C529.686 138.3 511.895 137.024 492.845 155.503L499.051 164.14L498.638 164.884C498.334 165.403 498.149 165.983 498.096 166.581C498.042 167.18 498.12 167.782 498.326 168.347C498.531 168.912 498.858 169.426 499.283 169.851C499.708 170.276 500.224 170.601 500.789 170.806L501.931 171.236C501.931 171.236 484.603 181.674 489.765 205.314C494.93 228.955 489.467 251.849 498.19 258.898C499.963 260.307 502.067 261.244 504.302 261.616C506.537 261.99 508.832 261.788 510.966 261.032L551.035 282.338C565.65 298.451 586.304 316.484 586.304 316.484L570.35 354.648L587.198 397.098C601.581 361.845 620.448 327.253 623.826 311.305C627.201 295.359 616.411 285.995 591.486 254.763Z" fill="#2331B5"/>
<path d="M576.737 375.822L574.685 375.144C582.729 350.33 591.814 327.766 594.413 321.429C594.563 321.069 594.598 320.671 594.515 320.291C594.431 319.908 594.234 319.561 593.95 319.296C570.779 297.127 565.169 289.518 564.937 289.122L566.691 287.864C566.691 287.946 572.468 295.772 595.456 317.741C596.054 318.304 596.465 319.037 596.638 319.841C596.808 320.644 596.73 321.482 596.416 322.24C593.833 328.559 584.765 351.092 576.737 375.822Z" fill="#3442D9"/>
<path d="M514.009 239.591L499.61 229.666C499.61 229.666 508.383 217.722 513.149 210.542C513.564 209.93 513.96 209.301 514.324 208.673C514.441 208.459 514.632 208.297 514.862 208.219C515.092 208.138 515.343 208.147 515.565 208.243C515.772 208.329 515.943 208.482 516.049 208.677C516.158 208.872 516.197 209.098 516.162 209.318C512.935 228.475 514.009 239.591 514.009 239.591Z" fill="black"/>
<path d="M568.563 141.905C560.867 144.453 550.688 144.42 538.589 144.073C525.614 143.693 514.309 143.378 494.233 157.506L497.543 162.087C516.03 149.069 526.01 149.35 538.456 149.714C550.042 150.045 559.973 150.094 568.066 147.943C568.232 145.893 568.413 143.923 568.563 141.905Z" fill="#3442D9"/>
<path d="M562.719 253.107C562.966 253.107 563.204 253.01 563.381 252.837C563.555 252.663 563.658 252.429 563.662 252.18C563.911 234.843 557.273 217.126 554.409 210.326C551.496 203.315 549.719 195.882 549.146 188.31C548.731 181.302 547.328 174.391 544.975 167.778L548.601 138.812H546.697L543.057 168.06L543.155 168.292C545.485 174.777 546.872 181.563 547.276 188.441C547.866 196.213 549.686 203.839 552.671 211.039C555.486 217.738 562.023 235.158 561.774 252.131C561.772 252.258 561.795 252.383 561.842 252.501C561.887 252.618 561.957 252.725 562.045 252.815C562.131 252.905 562.236 252.977 562.351 253.028C562.468 253.078 562.592 253.105 562.719 253.107Z" fill="black"/>
<path d="M625.197 421.598C624.817 421.017 624.302 420.532 623.698 420.187C623.094 419.842 622.418 419.644 621.721 419.614C622.284 415.675 621.721 412.483 616.475 411.258C610.613 410.02 604.539 410.213 598.766 411.821C588.837 386.345 569.158 319.179 555.404 270.181L510.966 261.098C510.485 273.289 518.497 300.107 524.338 323.233C530.181 346.361 543.041 394.799 546.616 412.3C548.75 422.823 551.862 435.461 551.862 435.461H593.237C605.338 435.461 620.91 430.648 623.856 428.33C624.906 427.597 625.631 426.488 625.879 425.232C626.13 423.979 625.886 422.677 625.197 421.598Z" fill="#2331B5"/>
<path d="M557.916 410.911C556.047 405.021 554.044 398.836 551.959 392.416C539.877 355.061 524.833 308.593 515.15 261.727L517.268 261.279C526.918 308.03 541.946 354.432 554.011 391.721C556.096 398.156 558.099 404.343 559.985 410.233L557.916 410.911Z" fill="#3442D9"/>
<path d="M537.743 254.762C537.893 251.535 533.622 239.757 528.46 231.221C523.295 222.685 520.663 216.664 515.815 219.458C510.964 222.254 499.612 229.617 499.612 229.617C499.612 229.617 508.366 217.656 513.15 210.476C523.675 194.711 520.051 172.973 501.927 171.235C487.148 179.391 484.847 186.489 470.847 211.137C456.844 235.786 448.503 262.289 463.548 273.157C478.592 284.027 493.338 276.467 520.581 264.588C532.299 259.477 537.595 257.971 537.743 254.762Z" fill="#2331B5"/>
<path d="M520.698 263.033C517.702 261.677 515.054 257.127 511.843 247.847C506.43 232.213 504.941 227.416 508.318 224.172L506.315 225.446C505.832 225.75 505.427 226.165 505.14 226.658C504.852 227.151 504.688 227.706 504.659 228.275C504.528 232.429 506.629 238.483 510.072 248.459C512.256 254.746 514.194 258.93 516.229 261.576C517.033 262.647 518.171 263.419 519.461 263.772C520.753 264.126 522.125 264.04 523.362 263.528C522.446 263.577 521.534 263.407 520.698 263.033Z" fill="#3442D9"/>
<path d="M486.054 239.096C485.871 239.094 485.693 239.046 485.532 238.956C485.374 238.868 485.238 238.738 485.144 238.582C484.994 238.34 484.945 238.048 485.006 237.771C485.068 237.493 485.236 237.249 485.475 237.093C486.502 236.448 510.45 221.36 515.265 218.583C520.463 215.604 523.458 220.699 527.612 227.747L529.383 230.741C529.469 230.862 529.529 230.999 529.56 231.143C529.588 231.289 529.588 231.437 529.557 231.583C529.529 231.727 529.469 231.864 529.383 231.983C529.297 232.105 529.188 232.207 529.06 232.283C528.935 232.359 528.793 232.409 528.647 232.429C528.5 232.448 528.352 232.437 528.21 232.396C528.068 232.355 527.935 232.285 527.822 232.191C527.707 232.099 527.614 231.981 527.546 231.85C526.901 230.806 526.322 229.798 525.759 228.838C521.258 221.212 519.403 218.698 516.342 220.452C511.559 223.213 486.882 238.765 486.551 238.913C486.403 239.014 486.233 239.077 486.054 239.096Z" fill="black"/>
<path d="M584.235 171.386C583.717 171.38 583.218 171.191 582.825 170.85C582.435 170.511 582.178 170.045 582.098 169.533C578.75 146.943 577.463 124.099 578.259 101.277C578.273 100.899 578.197 100.523 578.039 100.18C577.881 99.8387 577.642 99.5367 577.346 99.3025C577.051 99.0704 576.701 98.9101 576.332 98.8362C575.96 98.7622 575.578 98.7766 575.214 98.8773L548.337 106.421C548.063 106.497 547.778 106.52 547.496 106.485C547.215 106.452 546.944 106.361 546.697 106.222C546.451 106.084 546.235 105.897 546.06 105.675C545.886 105.451 545.756 105.197 545.68 104.923C545.604 104.652 545.582 104.367 545.617 104.085C545.649 103.804 545.74 103.532 545.877 103.286C546.017 103.039 546.204 102.824 546.426 102.649C546.65 102.474 546.905 102.345 547.178 102.269L574.055 94.7089C575.076 94.4275 576.151 94.3905 577.188 94.6001C578.226 94.8117 579.199 95.2636 580.031 95.921C580.861 96.5784 581.525 97.4228 581.967 98.3863C582.41 99.3477 582.62 100.4 582.579 101.458C581.794 124.015 583.068 146.596 586.386 168.921C586.466 169.488 586.318 170.065 585.973 170.524C585.63 170.984 585.116 171.288 584.549 171.37L584.235 171.386Z" fill="#66BCFF"/>
<path d="M566.955 171.088C569.603 176.051 574.287 184.902 575.23 187.78C575.528 192.312 575.331 200.104 575.23 202.553C575.228 202.764 575.302 202.968 575.44 203.13C575.577 203.29 575.766 203.397 575.976 203.43C583.324 204.57 586.552 204.72 589.498 204.289C592.927 203.629 596.312 202.773 599.642 201.725C599.811 201.68 599.969 201.597 600.105 201.489C600.238 201.378 600.349 201.24 600.427 201.084C600.505 200.928 600.548 200.755 600.557 200.581C600.565 200.408 600.536 200.233 600.47 200.071C597.707 191.221 595.92 184.768 595.92 184.768C595.324 173.8 595.275 165.099 595.275 162.153C595.275 161.868 595.166 161.591 594.969 161.381C594.771 161.171 594.502 161.046 594.215 161.03C588.487 160.52 582.731 160.387 576.985 160.633C573.361 160.896 572.136 163.031 567.056 169.052C566.828 169.34 566.698 169.689 566.68 170.055C566.661 170.418 566.758 170.78 566.955 171.088Z" fill="white"/>
<path d="M599.41 200.864C599.41 200.864 600.585 201.312 599.708 201.725C599.877 201.68 600.033 201.597 600.168 201.489C600.304 201.378 600.413 201.24 600.491 201.084C600.569 200.928 600.614 200.755 600.62 200.581C600.628 200.408 600.6 200.233 600.534 200.071C597.771 191.221 595.984 184.768 595.984 184.768C595.388 173.8 595.338 165.099 595.338 162.153C595.338 161.868 595.23 161.591 595.032 161.381C594.835 161.171 594.566 161.046 594.278 161.03C588.551 160.52 582.794 160.387 577.05 160.633C576.274 160.676 575.512 160.857 574.799 161.161L584.233 181.311L583.604 199.855L599.41 200.864Z" fill="#FFE75C"/>
<path d="M584.861 200.385C586.714 207.002 588.304 211.602 592.376 212.461C596.446 213.322 601.378 209.153 607.669 202.851C613.957 196.548 611.738 191.27 609.025 186.307C606.311 181.343 605.947 175.092 602.619 172.493C598.436 169.487 593.976 166.891 589.297 164.736C585.473 163.08 583.24 163.08 577.447 169.549C571.654 176.016 568.443 179.772 569.437 182.37C570.17 184.217 571.015 186.019 571.968 187.763C570.893 188.649 570.16 189.879 569.891 191.247C569.622 192.614 569.835 194.029 570.495 195.258C571.637 197.969 571.984 200.451 577.48 200.451C582.975 200.451 584.861 200.385 584.861 200.385Z" fill="#FF78B9"/>
<path d="M572.186 187.646C571.888 187.644 571.602 187.525 571.391 187.315C571.187 187.112 571.074 186.834 571.074 186.547C571.074 186.259 571.187 185.982 571.391 185.776C579.417 178.3 586.418 171.616 586.484 171.55C586.587 171.453 586.708 171.375 586.84 171.324C586.971 171.272 587.111 171.248 587.252 171.252C587.394 171.254 587.534 171.285 587.663 171.342C587.793 171.4 587.91 171.482 588.006 171.583C588.105 171.685 588.181 171.807 588.232 171.938C588.284 172.07 588.308 172.209 588.306 172.351C588.302 172.493 588.271 172.632 588.216 172.762C588.158 172.891 588.076 173.008 587.973 173.105C587.973 173.105 580.89 179.872 572.864 187.364C572.677 187.535 572.436 187.636 572.186 187.646Z" fill="black"/>
<path d="M586.072 192.294C582.65 194.441 579.083 196.35 575.398 198.002C575.398 199.972 575.398 201.642 575.297 202.552C575.295 202.764 575.369 202.967 575.506 203.129C575.642 203.289 575.833 203.396 576.043 203.429C583.391 204.569 586.619 204.719 589.565 204.288C592.991 203.628 596.379 202.772 599.709 201.724C599.877 201.679 600.036 201.597 600.169 201.488C600.305 201.377 600.416 201.239 600.494 201.083C600.572 200.927 600.615 200.754 600.623 200.58C600.631 200.407 600.601 200.233 600.537 200.07C600.321 199.327 600.089 198.614 599.875 197.919C595.066 196.6 590.431 194.712 586.072 192.294Z" fill="white"/>
<path d="M519.572 222.271C522.989 218.333 525.491 213.69 526.904 208.673C527.964 205.365 529.222 200.766 529.635 199.046C530.298 196.266 532.085 196.299 534.6 196.895C537.117 197.491 538.109 197.871 537.712 202.304C537.314 206.738 536.256 217.192 536.256 217.192L519.572 222.271Z" fill="#FF78B9"/>
<path d="M569.338 224.886C567.684 220.436 566.971 218.135 565.547 216.35C564.126 214.563 562.866 214.199 556.562 213.868C554.113 213.735 549.328 213.868 546.201 213.868C552.441 212.212 558.945 210.889 560.401 210.559C562.519 209.947 564.637 209.649 563.711 206.937C562.784 204.223 561.891 203.627 560.401 203.627C556.518 203.582 552.638 203.905 548.817 204.587C543.257 205.741 537.791 207.307 532.464 209.269C529.302 210.624 525.347 216.383 519.704 222.355C522.186 231.139 528.176 244.456 534.152 250.874C542.228 247.747 546.879 240.848 548.866 238.252C558.912 236.598 562.437 237.623 567.982 238.334C571.474 238.782 571.737 236.267 572.019 235.026C572.3 233.785 570.696 228.923 569.338 224.886Z" fill="#FF78B9"/>
<path d="M487.165 110.309C486.818 114.808 488.308 118.58 490.475 118.78C492.295 118.911 493.785 117.224 493.785 113.021C493.842 111.24 494.064 109.469 494.448 107.727C495.241 104.023 493.52 102.599 491.699 102.451C489.565 102.285 487.513 105.876 487.165 110.309Z" fill="black"/>
<path d="M524.218 56.8748C526.46 56.4332 528.783 56.8091 530.772 57.9308C532.76 59.0525 534.281 60.8501 535.059 62.9948C536.715 68.0897 538.089 75.7997 529.367 77.1721C525.691 77.7514 521.901 76.1305 516.126 71.5636C511.939 68.2561 507.403 67.0974 497.557 72.0772C492.26 68.4718 494.941 59.108 509.258 63.8063C502.968 55.7819 504.872 50.1077 509.357 48.5526C513.842 46.9974 520.594 47.7432 524.218 56.8748Z" fill="#2A39D4"/>
<path d="M524.206 72.4411C521.104 68.2276 518.478 63.6854 516.377 58.8925C513.977 53.9292 512.007 49.9272 509.657 48.4214L509.342 48.52C508.519 48.8035 507.759 49.2472 507.109 49.8266C507.329 49.7341 507.565 49.6889 507.804 49.6951C509.873 49.8615 512.206 54.6585 514.69 59.7204C516.866 64.6386 519.586 69.3 522.799 73.6162C523.844 74.9084 525.019 76.0897 526.307 77.1395C527.31 77.3059 528.333 77.3059 529.336 77.1395H529.518C527.524 75.8452 525.734 74.2613 524.206 72.4411Z" fill="black"/>
<path d="M535.097 73.9964C534.657 74.6497 534.096 75.2127 533.443 75.6502C532.907 68.4599 529.702 61.7257 524.455 56.7767C525.299 56.6493 526.158 56.6493 527.005 56.7767C531.469 61.5058 534.306 67.5416 535.097 73.9964Z" fill="black"/>
<path d="M546.166 409.936C546.349 410.761 546.532 411.589 546.68 412.3C548.814 422.823 551.926 435.461 551.926 435.461H593.304C605.402 435.461 620.976 430.648 623.922 428.33C624.996 427.603 625.742 426.486 626.003 425.214C626.262 423.944 626.015 422.621 625.311 421.532C624.931 420.949 624.417 420.466 623.813 420.121C623.209 419.776 622.531 419.579 621.837 419.546C622.398 415.61 621.837 412.417 616.59 411.193C610.727 409.954 604.652 410.147 598.881 411.756C597.34 407.801 595.57 402.821 593.601 397.065C575.311 396.833 556.81 395.378 546.166 409.936Z" fill="#45AAF7"/>
<path d="M546.166 409.936C546.349 410.761 546.532 411.589 546.68 412.3C548.814 422.823 551.926 435.461 551.926 435.461H593.304C605.402 435.461 620.976 430.648 623.922 428.33C624.996 427.603 625.742 426.486 626.003 425.214C626.262 423.944 626.015 422.621 625.311 421.532C624.931 420.949 624.417 420.466 623.813 420.121C623.209 419.776 622.531 419.579 621.837 419.546C622.398 415.61 621.837 412.417 616.59 411.193C610.727 409.954 604.652 410.147 598.881 411.756C597.34 407.801 595.57 402.821 593.601 397.065C575.311 396.833 556.81 395.378 546.166 409.936Z" fill="#45AAF7"/>
<path d="M598.765 411.92L597.324 412.202H597.16L585.325 414.634C585.325 414.634 585.21 414.336 585.027 413.773C584.146 410.69 583.696 407.499 583.688 404.294C583.589 397.792 580.129 397.065 574.155 397.196C574.254 396.915 574.336 396.65 574.435 396.387C575.256 394.308 576.686 392.525 578.539 391.274C580.39 390.023 582.578 389.359 584.813 389.371H594.742C595.321 389.373 595.893 389.505 596.414 389.755C596.934 390.006 597.394 390.37 597.758 390.82C598.12 391.27 598.378 391.795 598.512 392.356C598.647 392.919 598.654 393.505 598.532 394.07C597.322 399.323 597.22 404.773 598.235 410.067C598.372 410.696 598.551 411.314 598.765 411.92Z" fill="#8CD9FF"/>
<path d="M557.077 418.406C555.602 417.913 554.042 417.728 552.493 417.861C550.944 417.995 549.44 418.445 548.072 419.182C548.222 419.811 548.354 420.44 548.504 421.068C549.693 420.37 551.018 419.93 552.389 419.778C553.761 419.626 555.15 419.768 556.464 420.191C562.488 422.227 566.858 430.118 569.208 435.527H571.276C568.893 429.853 564.111 420.803 557.077 418.406Z" fill="#5865F2"/>
<path d="M624.813 427.437C624.509 427.79 624.173 428.111 623.805 428.396C620.859 430.73 605.285 435.527 593.186 435.527H568.46V435.081C596.777 434.633 616.076 422.872 622.63 422.872C623.129 422.936 623.605 423.123 624.014 423.419C624.421 423.712 624.75 424.105 624.968 424.559C625.185 425.013 625.284 425.516 625.257 426.017C625.231 426.521 625.078 427.01 624.813 427.437Z" fill="black"/>
<path d="M603.945 201.61H603.781C601.017 200.996 598.573 199.403 596.894 197.127C596.777 197.022 596.683 196.895 596.621 196.751C596.557 196.607 596.527 196.451 596.531 196.293C596.535 196.137 596.574 195.983 596.644 195.843C596.711 195.701 596.812 195.578 596.935 195.48C597.057 195.383 597.2 195.313 597.352 195.276C597.504 195.237 597.663 195.235 597.817 195.266C597.971 195.297 598.117 195.36 598.244 195.453C598.369 195.545 598.474 195.664 598.55 195.802C599.904 197.63 601.853 198.929 604.062 199.475C604.202 199.498 604.337 199.547 604.458 199.621C604.58 199.695 604.684 199.794 604.767 199.909C604.851 200.024 604.91 200.155 604.941 200.293C604.974 200.433 604.978 200.576 604.956 200.716C604.914 200.959 604.791 201.178 604.608 201.341C604.424 201.503 604.189 201.597 603.945 201.61Z" fill="black"/>
<path d="M550.272 188.176C549.181 188.18 548.131 187.773 547.326 187.038C546.523 186.303 546.026 185.292 545.935 184.205L545.091 174.428H547.028L552.704 183.858C552.965 184.289 553.107 184.782 553.115 185.288C553.121 185.791 552.996 186.288 552.747 186.728C552.501 187.167 552.141 187.531 551.706 187.786C551.27 188.04 550.775 188.176 550.272 188.176Z" fill="#FFE75C"/>
<path d="M512.522 172.378H501.93C501.665 172.345 501.423 172.215 501.246 172.016C501.069 171.817 500.971 171.56 500.971 171.293C500.971 171.028 501.069 170.771 501.246 170.57C501.423 170.371 501.665 170.243 501.93 170.21H512.522C512.677 170.192 512.831 170.204 512.979 170.251C513.126 170.297 513.264 170.373 513.379 170.475C513.496 170.578 513.589 170.703 513.652 170.845C513.716 170.987 513.749 171.139 513.749 171.293C513.749 171.449 513.716 171.601 513.652 171.743C513.589 171.883 513.496 172.01 513.379 172.113C513.264 172.213 513.126 172.291 512.979 172.337C512.831 172.382 512.677 172.396 512.522 172.378Z" fill="black"/>
<path d="M562.157 293.984L558.946 282.753C567.63 277.079 575.893 270.786 583.673 263.927C583.673 263.927 574.654 283.877 570.681 302.257L562.157 293.984Z" fill="black"/>
<path d="M586.301 317.625C586.036 317.594 585.794 317.465 585.617 317.265C585.44 317.066 585.344 316.809 585.344 316.542C585.344 316.275 585.44 316.018 585.617 315.819C585.794 315.62 586.036 315.49 586.301 315.459L596.795 315.044C597.08 315.032 597.358 315.133 597.569 315.324C597.781 315.517 597.906 315.786 597.921 316.07C597.933 316.355 597.832 316.635 597.639 316.846C597.448 317.056 597.179 317.183 596.893 317.195L586.402 317.625H586.301Z" fill="black"/>
<path d="M598.764 411.92L597.326 412.202H597.16C592.453 413.251 587.835 414.657 583.34 416.403C583.221 416.427 583.096 416.427 582.976 416.403C582.757 416.403 582.543 416.327 582.375 416.187C582.206 416.047 582.091 415.852 582.05 415.636C582.009 415.421 582.044 415.199 582.149 415.006C582.255 414.815 582.424 414.665 582.629 414.583C582.629 414.583 583.556 414.219 585.029 413.691C589.347 412.138 593.772 410.899 598.269 409.985C598.393 410.64 598.559 411.287 598.764 411.92Z" fill="black"/>
<path d="M569.555 225.744L569.257 224.886C569.126 224.51 568.994 224.146 568.861 223.793C559.289 222.628 549.626 222.422 540.013 223.18C539.767 223.205 539.539 223.328 539.381 223.519C539.222 223.713 539.146 223.959 539.169 224.206C539.198 224.452 539.321 224.678 539.512 224.834C539.705 224.992 539.95 225.068 540.196 225.05C549.981 224.304 559.817 224.536 569.555 225.744Z" fill="black"/>
<path d="M496.248 105.428L489.96 108.473L498.765 112.393L496.248 105.428Z" fill="white"/>
<path d="M624.831 427.404C625.478 426.494 624.831 425.966 622.631 425.966C616.009 425.966 596.778 435.064 568.461 435.527H551.911C551.911 435.527 551.446 433.657 550.769 430.746C563.678 430.746 577.911 430.547 591.018 426.346C605.086 421.83 613.03 418.57 621.786 419.611C622.476 419.644 623.15 419.839 623.752 420.183C624.354 420.524 624.866 421.004 625.246 421.582C625.817 422.465 626.084 423.511 626.01 424.562C625.936 425.612 625.521 426.609 624.831 427.404Z" fill="white"/>
<path d="M591.021 392.812H592.313C595.309 392.812 597.427 392.962 598.022 393.673C598.304 394.02 598.353 394.698 598.154 395.857C598.271 395.228 598.386 394.6 598.52 394.004C598.575 393.679 598.565 393.345 598.489 393.024C598.413 392.702 598.271 392.4 598.076 392.132C597.879 391.867 597.63 391.644 597.347 391.477C597.061 391.309 596.745 391.2 596.416 391.159C595.054 391.003 593.684 390.937 592.313 390.959H591.038C586.072 390.959 580.462 390.959 577.516 397.229C578.175 397.283 578.828 397.394 579.469 397.56C581.951 392.747 586.37 392.78 591.021 392.812Z" fill="#3442D9"/>
<path d="M551.63 109.877C551.462 109.879 551.297 109.84 551.147 109.766C550.997 109.69 550.868 109.582 550.769 109.448C550.654 109.298 547.758 105.693 541.005 106.504C540.721 106.547 540.432 106.477 540.202 106.307C539.969 106.138 539.815 105.884 539.772 105.602C539.727 105.319 539.797 105.029 539.967 104.799C540.136 104.567 540.391 104.413 540.674 104.37C546.069 103.26 548.22 100.696 549.378 98.8434C549.452 98.7222 549.547 98.6174 549.662 98.5352C549.775 98.4531 549.904 98.3935 550.042 98.3606C550.18 98.3277 550.321 98.3236 550.461 98.3462C550.599 98.3709 550.732 98.4202 550.851 98.4962C550.975 98.5702 551.082 98.6667 551.166 98.7818C551.25 98.8947 551.312 99.0262 551.347 99.1639C551.379 99.3036 551.386 99.4474 551.363 99.5871C551.34 99.7288 551.291 99.8644 551.215 99.9856C550.021 101.913 548.351 103.503 546.367 104.6C548.737 105.087 550.886 106.33 552.491 108.141C552.663 108.372 552.737 108.661 552.696 108.947C552.655 109.23 552.505 109.489 552.275 109.664C552.088 109.801 551.862 109.877 551.63 109.877Z" fill="black"/>
<path d="M409.477 435.527H337.632V420.325C337.626 416.422 339.152 412.675 341.884 409.887C344.401 407.321 347.033 404.806 348.984 402.988C349.903 402.121 350.634 401.078 351.135 399.921C351.637 398.762 351.895 397.515 351.897 396.254V379.051C351.899 375.583 353.07 372.22 355.221 369.5C357.37 366.782 360.374 364.865 363.747 364.062C374.645 361.245 386.014 360.754 397.114 362.622C400.611 363.322 403.756 365.21 406.016 367.967C408.276 370.724 409.51 374.18 409.51 377.742L409.477 435.527Z" fill="#45AAF7"/>
<path d="M356.084 406.593C356.218 406.659 356.366 406.693 356.516 406.691C356.688 406.696 356.857 406.65 357.007 406.562C357.155 406.476 357.278 406.348 357.36 406.196C360.553 399.976 360.553 390.232 360.553 379.909C360.553 369.156 361.58 365.649 368.53 363.02C367.538 363.2 366.13 363.482 364.791 363.78C363.852 363.999 362.975 364.423 362.217 365.016C361.461 365.61 360.84 366.362 360.405 367.221C358.932 370.216 358.749 374.234 358.749 379.909C358.749 390 358.749 399.513 355.754 405.335C355.632 405.547 355.6 405.798 355.661 406.032C355.723 406.268 355.875 406.47 356.084 406.593Z" fill="#BAE8FF"/>
<path d="M409.476 377.741C409.478 374.172 408.242 370.713 405.973 367.954C403.705 365.197 400.552 363.311 397.047 362.621C391.26 361.546 385.358 361.217 379.486 361.645C365.669 362.588 367.737 371.372 367.737 384.095V395.012C367.754 398.64 366.795 402.206 364.956 405.335C362.92 408.76 362.324 412.78 362.324 420.819V435.526H409.476V377.741Z" fill="#3F99F2"/>
<path d="M392.148 418.075C391.501 399.298 382.944 382.855 374.339 367.188C374.137 366.874 374.024 366.51 374.01 366.137C373.998 365.763 374.086 365.393 374.265 365.064C374.443 364.735 374.708 364.462 375.031 364.271C375.351 364.08 375.719 363.979 376.093 363.979H378.228C378.684 363.99 379.127 364.117 379.516 364.353C379.906 364.588 380.226 364.92 380.446 365.319C389.383 381.549 398.652 398.555 399.264 418.075C399.39 420.356 399.042 422.64 398.243 424.779C397.442 426.919 396.207 428.871 394.615 430.512C393.023 432.152 391.108 433.444 388.99 434.307C386.874 435.17 384.602 435.585 382.316 435.527H375.199C377.486 435.585 379.758 435.17 381.874 434.307C383.992 433.444 385.907 432.152 387.499 430.512C389.091 428.871 390.326 426.919 391.125 424.779C391.926 422.64 392.273 420.356 392.148 418.075Z" fill="#3543DE"/>
<path d="M412.438 418.075C411.793 399.298 403.237 382.855 394.631 367.188C394.419 366.872 394.3 366.506 394.282 366.126C394.263 365.748 394.35 365.372 394.53 365.037C394.711 364.704 394.978 364.427 395.307 364.234C395.634 364.041 396.005 363.942 396.385 363.946H398.503C398.962 363.955 399.407 364.082 399.8 364.318C400.192 364.552 400.515 364.887 400.739 365.286C409.659 381.513 418.944 398.519 419.557 418.04C419.67 420.325 419.312 422.609 418.503 424.748C417.695 426.888 416.453 428.838 414.856 430.475C413.26 432.115 411.341 433.405 409.223 434.268C407.103 435.132 404.829 435.55 402.542 435.494H395.426C397.71 435.55 399.981 435.132 402.099 434.272C404.215 433.409 406.131 432.121 407.728 430.488C409.324 428.852 410.567 426.907 411.376 424.77C412.188 422.636 412.549 420.355 412.438 418.075Z" fill="#3543DE"/>
<path d="M394.812 388.893L416.841 392.73C418.265 396.083 419.179 399.629 419.557 403.251C419.705 405.568 417.024 407.719 412.704 409.504C409.618 410.823 406.762 412.627 404.248 414.848C397.99 420.325 392.661 423.749 383.542 423.749C381.623 423.749 380.331 423.749 379.306 422.59C378.161 421.286 377.487 419.636 377.385 417.907C377.282 416.175 377.761 414.459 378.743 413.029C379.852 411.509 381.233 410.209 382.814 409.19C386.075 407.053 388.828 404.231 390.884 400.919C392.938 397.607 394.247 393.887 394.713 390.016C394.73 389.636 394.779 389.273 394.812 388.893Z" fill="#DE3A93"/>
<path d="M412.703 409.521C414.49 408.814 416.164 407.845 417.668 406.643C419.77 404.757 418.86 402.92 414.356 402.988C409.855 403.054 405.371 406.577 396.068 412.218C386.503 418.008 372.899 423.799 383.407 423.799C392.611 423.799 397.856 420.374 404.113 414.897C406.661 412.646 409.564 410.83 412.703 409.521Z" fill="black"/>
<path d="M392.447 382.358C390.908 382.688 391.105 384.492 391.95 386.329C390.163 389.636 391.239 390.91 394.316 392.2C400.424 394.255 406.869 395.12 413.301 394.748C419.92 394.07 419.556 391.935 418.879 389.786C421.112 387.868 420.797 385.6 418.48 384.574C410.145 381.579 401.17 380.815 392.447 382.358Z" fill="#66BCFF"/>
<path d="M441.221 269.535H412.953V284.97H441.221V269.535Z" fill="white"/>
<path d="M498.815 269.883V270.064C499.353 272.262 499.384 274.555 498.903 276.765C498.423 278.978 497.443 281.051 496.042 282.828C494.638 284.605 492.849 286.039 490.809 287.019C488.769 288.001 486.532 288.506 484.268 288.494H453.483L439.002 296.549V296.185C432.383 296.185 428.592 293.985 431.588 269.717C430.18 262.919 424.173 236.101 420.845 216.168C417.784 197.97 424.636 191.353 443.404 180.633C451.447 156.827 472.219 158.218 476.108 172.494C479.997 186.772 493.354 247.285 498.815 269.883Z" fill="#66BCFF"/>
<path d="M440.755 304.143L435.79 305.035C435.552 305.08 435.326 305.177 435.131 305.318C434.933 305.46 434.769 305.643 434.652 305.855C434.533 306.066 434.463 306.3 434.444 306.543C434.426 306.783 434.463 307.026 434.549 307.252L435.626 309.998C420.614 310.793 407.489 312.133 402.31 316.616C396.533 321.694 397.129 328.048 394.746 348.709C392.363 369.372 388.455 381.68 394.746 384.426C401.11 387.152 408.066 388.21 414.952 387.502C421.904 386.824 422.484 383.284 423.957 372.614C425.43 361.943 428.657 338.123 428.657 338.123H483.275C496.762 338.123 504.79 329.305 506.627 321.778C507.933 316.367 506.163 303.58 503.052 288.493H453.482L439.001 296.548L440.11 301.181L440.755 304.143Z" fill="#3442D9"/>
<path d="M472.686 346.296L471.792 344.325C490.711 335.806 491.124 318.288 485.248 288.94L487.366 288.51C492.315 313.259 494.865 336.287 472.686 346.296Z" fill="#2330BF"/>
<path d="M398.092 393.326C397.833 393.326 397.585 393.234 397.387 393.067C397.19 392.901 397.059 392.671 397.016 392.416C397.069 390.023 397.318 387.639 397.759 385.285C396.933 375.956 399.614 359.612 401.716 348.113L402.626 343.152C405.936 323.979 406.416 323.596 424.639 322.407L429.604 322.093C441.022 321.347 446.75 320.967 448.685 318.469C450.341 316.301 449.562 311.704 448.141 304.374C445.094 288.775 442.793 275.491 442.777 275.358C442.748 275.218 442.75 275.072 442.779 274.932C442.808 274.793 442.865 274.659 442.947 274.542C443.029 274.425 443.134 274.324 443.255 274.248C443.377 274.172 443.512 274.123 443.654 274.1C443.935 274.053 444.223 274.119 444.457 274.283C444.689 274.448 444.848 274.696 444.897 274.978C444.897 275.109 447.212 288.395 450.259 303.961C451.913 312.117 452.642 316.881 450.39 319.792C447.876 323.101 442.115 323.432 429.736 324.241L424.77 324.574C407.889 325.665 407.889 325.665 404.728 343.532C404.463 345.071 404.165 346.757 403.834 348.495C402.495 355.79 398.969 375.128 399.896 385.236C399.912 385.324 399.912 385.415 399.896 385.501C399.489 387.687 399.236 389.897 399.134 392.118C399.177 392.399 399.107 392.685 398.939 392.915C398.772 393.143 398.521 393.297 398.24 393.342L398.092 393.326Z" fill="#2467D4"/>
<path d="M428.659 339.213H428.492C416.063 337.311 410.104 326.542 409.857 326.078C409.74 325.829 409.724 325.548 409.808 325.287C409.894 325.026 410.075 324.808 410.317 324.677C410.558 324.547 410.839 324.512 411.104 324.582C411.369 324.652 411.597 324.821 411.743 325.053C411.743 325.151 417.468 335.343 428.823 337.079C428.963 337.1 429.098 337.147 429.219 337.221C429.343 337.293 429.448 337.389 429.534 337.502C429.618 337.615 429.68 337.745 429.713 337.882C429.747 338.02 429.754 338.164 429.733 338.303C429.69 338.558 429.558 338.788 429.361 338.955C429.166 339.121 428.915 339.213 428.659 339.213Z" fill="black"/>
<path d="M428.659 339.214C428.46 339.214 428.265 339.157 428.096 339.048C425.512 337.546 423.258 335.537 421.467 333.143C419.675 330.75 418.383 328.022 417.67 325.119C417.643 324.981 417.646 324.838 417.674 324.7C417.703 324.56 417.761 324.429 417.839 324.312C417.919 324.197 418.021 324.096 418.141 324.018C418.258 323.942 418.391 323.888 418.531 323.862C418.669 323.837 418.812 323.837 418.95 323.866C419.09 323.897 419.221 323.952 419.338 324.032C419.453 324.112 419.554 324.213 419.632 324.332C419.708 324.451 419.762 324.583 419.788 324.723C421.156 329.965 424.55 334.45 429.222 337.197C429.423 337.32 429.577 337.507 429.662 337.727C429.748 337.947 429.76 338.189 429.696 338.415C429.633 338.643 429.497 338.844 429.31 338.988C429.123 339.132 428.895 339.21 428.659 339.214Z" fill="black"/>
<path d="M498.815 269.866C496.003 258.285 491.07 236.614 486.419 216.382L462.206 214.628L443.47 227.862L432.695 242.239L427.169 249.799C429.104 259.029 430.776 266.622 431.438 269.815C428.426 294.034 432.233 296.285 438.852 296.285L458.017 288.146L502.275 285.068C501.215 280.072 500.056 274.994 498.815 269.866Z" fill="#EB459F"/>
<path d="M452.908 257.116C454.296 249.03 453.59 242.16 451.328 241.772C449.066 241.384 446.105 247.625 444.715 255.711C443.326 263.797 444.035 270.667 446.297 271.055C448.558 271.443 451.519 265.204 452.908 257.116Z" fill="black"/>
<path d="M435.279 237.705C436.337 235.769 437.496 233.867 438.739 232.049C450.87 214.447 462.389 209.798 473.361 209.798H487.082C487.282 209.796 487.477 209.843 487.653 209.936C487.83 210.026 487.984 210.157 488.099 210.32C488.214 210.482 488.288 210.669 488.317 210.866C488.344 211.063 488.323 211.265 488.257 211.452L486.487 216.415C465.433 216.415 457.953 215.852 440.409 234.231L432.763 242.239L435.279 237.705Z" fill="#D11583"/>
<path d="M502.276 284.97H466.526C458.516 284.97 448.702 284.539 438.854 296.185L440.045 301.149C445.789 295.657 451.069 293.258 462.522 293.258H503.979L502.276 284.97Z" fill="black"/>
<path d="M440.344 234.761C433.094 236.133 427.385 239.823 424.141 246.59C423.25 248.445 421.92 250.058 420.267 251.288L400.754 265.482C398.589 267.056 397.087 269.381 396.543 272.001C395.998 274.622 396.448 277.352 397.808 279.659C398.759 281.276 400.117 282.616 401.744 283.546C403.373 284.479 405.216 284.968 407.094 284.97H415.186C432.001 275.524 439.863 269.137 443.785 265.449C447.709 261.76 452.259 255.257 451.532 247.648C450.803 240.039 448.518 233.255 440.344 234.761Z" fill="#CFEFFF"/>
<path d="M446.351 178.913C443.785 174.677 440.377 168.872 439.101 166.223C437.827 163.577 434.633 164.173 439.101 176.265C428.211 172.113 426.01 173.619 425.415 175.141C424.819 176.662 427.3 177.473 431.837 180.103C436.371 182.734 441.202 185.845 441.202 185.845L446.351 178.913Z" fill="#66BCFF"/>
<path d="M457.655 179.277C459.494 177.044 460.106 174.513 459.03 173.619C457.953 172.725 456.797 173.204 455.141 175.355C454.453 176.267 453.682 177.116 452.84 177.886C451.053 179.542 451.433 180.914 452.326 181.658C453.22 182.403 455.819 181.51 457.655 179.277Z" fill="black"/>
<path d="M475.959 172.543C469.7 169.767 463.594 166.651 457.671 163.214C450.473 158.532 449.281 154.296 451.845 152.924C454.411 151.551 458.996 154.826 462.405 159.243C462.289 151.551 463.53 149.928 465.632 149.813C467.734 149.698 467.9 152.675 468.064 157.026C468.231 161.377 468.859 163.097 472.169 165.942C474.084 167.699 475.409 170.006 475.959 172.543Z" fill="#3442D9"/>
<path d="M428.809 208.44C425.748 208.44 423.232 205.827 425.582 201.345C427.932 196.862 435.712 192.18 439.484 190.543C443.258 188.903 444.996 190.543 445.162 191.849C445.326 193.156 444.665 195.009 442.017 198.466C439.369 201.924 434.321 208.44 428.809 208.44Z" fill="white"/>
<path d="M431.141 208.078C430.539 208.271 429.917 208.392 429.288 208.441L426.788 199.558C427.242 198.971 427.741 198.418 428.277 197.904L431.141 208.078Z" fill="#8CD9FF"/>
<path d="M437.911 203.329C437.433 203.859 436.925 204.363 436.389 204.835L433.328 193.984C433.875 193.602 434.435 193.255 434.982 192.924L437.911 203.329Z" fill="#8CD9FF"/>
<path d="M443.903 195.769C443.476 196.466 443.012 197.14 442.514 197.789L440.378 190.245C440.974 190.025 441.598 189.902 442.233 189.879L443.903 195.769Z" fill="#8CD9FF"/>
<path d="M447.757 192.494C447.648 192.511 447.537 192.511 447.427 192.494C445.247 191.79 443.121 190.921 441.072 189.895C440.947 189.828 440.838 189.735 440.75 189.624C440.661 189.515 440.596 189.388 440.557 189.252C440.518 189.115 440.505 188.973 440.522 188.833C440.538 188.692 440.581 188.556 440.649 188.433C440.719 188.309 440.809 188.199 440.92 188.11C441.031 188.024 441.159 187.958 441.294 187.919C441.43 187.878 441.574 187.868 441.713 187.882C441.855 187.899 441.991 187.942 442.114 188.01C444.047 188.959 446.044 189.772 448.088 190.442C448.335 190.52 448.544 190.682 448.68 190.902C448.815 191.12 448.869 191.381 448.83 191.636C448.789 191.89 448.659 192.12 448.462 192.289C448.265 192.455 448.016 192.546 447.757 192.544V192.494Z" fill="black"/>
<path d="M450.707 324.738C450.549 324.738 450.392 324.703 450.251 324.638C450.107 324.572 449.982 324.477 449.879 324.358L438.011 309.949C437.916 309.84 437.844 309.715 437.801 309.579C437.756 309.441 437.738 309.298 437.75 309.156C437.76 309.012 437.801 308.872 437.867 308.745C437.933 308.618 438.025 308.505 438.134 308.414C438.245 308.322 438.372 308.254 438.51 308.213C438.648 308.17 438.791 308.157 438.935 308.172C439.077 308.186 439.217 308.231 439.342 308.299C439.467 308.369 439.578 308.463 439.667 308.576L451.533 322.984C451.623 323.093 451.693 323.218 451.734 323.352C451.775 323.487 451.789 323.629 451.775 323.769C451.761 323.908 451.72 324.044 451.652 324.169C451.586 324.292 451.494 324.401 451.385 324.49C451.194 324.648 450.953 324.734 450.707 324.738Z" fill="black"/>
<path d="M448.104 304.953H443.884L442.577 298.965L441.386 293.441C442.495 292.339 443.685 291.323 444.944 290.396L446.267 296.499L448.104 304.953Z" fill="#3442D9"/>
<path d="M466.84 299.147H462.618L461.361 293.307L459.59 285.134C461.03 285.019 462.421 284.986 463.777 284.986L465.564 293.257L466.84 299.147Z" fill="#3442D9"/>
<path d="M501.267 298.915H497.047L495.839 293.29L494.035 284.97H498.255L500.059 293.29L501.267 298.915Z" fill="#3442D9"/>
<path d="M489.697 230.692C487.657 229.024 485.132 228.06 482.499 227.945C476.855 227.945 473.71 233.521 472.669 238.749C472.469 239.727 471.892 240.588 471.06 241.138C470.228 241.691 469.211 241.89 468.231 241.693C467.253 241.496 466.393 240.919 465.84 240.087C465.287 239.255 465.088 238.238 465.285 237.26C467.338 227.037 474.107 220.418 482.499 220.418C483.888 220.445 485.229 220.938 486.301 221.821C487.374 222.705 488.115 223.925 488.407 225.283C488.871 227.086 489.284 228.905 489.697 230.692Z" fill="white"/>
<path d="M498.833 269.932C499.071 270.898 499.11 271.9 498.948 272.88C498.787 273.86 498.426 274.797 497.892 275.635C497.355 276.471 496.655 277.193 495.833 277.749C495.009 278.308 494.083 278.692 493.107 278.881C492.215 279.035 491.314 279.113 490.41 279.113C484.203 279.113 477.814 275.44 472.898 269.039C472.323 268.242 472.083 267.253 472.224 266.282C472.368 265.31 472.886 264.433 473.664 263.835C474.445 263.239 475.427 262.97 476.403 263.085C477.379 263.202 478.27 263.693 478.891 264.455C482.348 268.989 486.57 271.586 490.475 271.586C492.082 271.533 493.641 271.044 494.989 270.169C496.336 269.293 497.419 268.069 498.122 266.623C498.387 267.749 498.635 268.807 498.882 269.799L498.833 269.932Z" fill="#2331B5"/>
<path d="M491.551 239.014C490.787 238.995 490.035 239.223 489.411 239.665C488.784 240.105 488.318 240.735 488.077 241.461L483.525 253.719C483.141 254.871 483.161 256.123 483.582 257.261C484.004 258.401 484.801 259.364 485.842 259.989C486.307 260.281 486.83 260.461 487.377 260.519C487.921 260.579 488.472 260.511 488.987 260.324C489.503 260.139 489.967 259.837 490.35 259.442C490.732 259.05 491.017 258.575 491.188 258.054L494.117 250.146C493.372 246.607 492.513 242.868 491.551 239.014Z" fill="#5865F2"/>
<path d="M485.904 259.988C484.86 259.362 484.061 258.396 483.644 257.252C483.225 256.108 483.211 254.855 483.605 253.702L484.83 250.395C485.054 249.807 485.401 249.277 485.849 248.835C486.296 248.396 486.835 248.059 487.424 247.845C488.016 247.631 488.645 247.547 489.271 247.599C489.898 247.65 490.504 247.837 491.052 248.145C491.948 248.657 492.632 249.47 492.983 250.438C493.337 251.407 493.331 252.472 492.971 253.437L491.317 258.07C491.145 258.598 490.853 259.078 490.467 259.475C490.079 259.871 489.606 260.175 489.082 260.36C488.56 260.545 488.002 260.609 487.451 260.543C486.9 260.48 486.37 260.29 485.904 259.988Z" fill="#FFE75C"/>
<path d="M417.073 283.366C416.814 283.364 416.566 283.273 416.369 283.107C416.171 282.94 416.04 282.708 415.997 282.455C415.958 282.172 416.03 281.886 416.196 281.656C416.362 281.424 416.611 281.266 416.89 281.215C420.868 280.327 424.633 278.673 427.98 276.35C428.099 276.272 428.231 276.218 428.37 276.192C428.51 276.165 428.654 276.165 428.791 276.194C428.931 276.222 429.063 276.278 429.182 276.356C429.299 276.436 429.399 276.539 429.478 276.656C429.556 276.775 429.611 276.907 429.638 277.046C429.664 277.186 429.662 277.33 429.636 277.467C429.607 277.607 429.551 277.739 429.471 277.858C429.391 277.975 429.291 278.076 429.171 278.154C425.576 280.658 421.521 282.423 417.24 283.347L417.073 283.366Z" fill="#A3D7FF"/>
<path d="M470.365 435.527H451.465C445.692 435.369 440.152 433.21 435.796 429.419C431.439 425.629 428.536 420.444 427.583 414.749C426.028 403.633 433.341 397.246 445.789 394.518L447.989 394.021C449.743 393.638 451.286 392.607 452.311 391.134C453.337 389.661 453.768 387.857 453.517 386.08C453.283 384.377 452.488 382.802 451.255 381.602C450.023 380.402 448.425 379.65 446.715 379.463L443.603 379.1C430.182 377.643 421.309 369.769 419.704 358.338C419.269 355.807 419.4 353.212 420.093 350.739C420.785 348.268 422.018 345.979 423.704 344.044C425.391 342.107 427.486 340.568 429.841 339.543C432.193 338.516 434.746 338.025 437.314 338.105H456.133C461.895 338.279 467.421 340.445 471.766 344.233C476.113 348.021 479.01 353.2 479.965 358.885L487.91 415.279C488.341 417.804 488.205 420.393 487.517 422.86C486.827 425.325 485.6 427.61 483.922 429.545C482.246 431.482 480.16 433.023 477.816 434.056C475.47 435.092 472.927 435.593 470.365 435.527Z" fill="#ADB4FF"/>
<path d="M492.312 435.526H473.428C467.647 435.387 462.096 433.236 457.733 429.441C453.369 425.649 450.468 420.451 449.529 414.748C448.897 410.553 449.817 406.27 452.118 402.704C454.419 399.137 457.94 396.532 462.024 395.376C463.542 394.942 464.857 393.981 465.726 392.664C466.597 391.347 466.969 389.763 466.774 388.198L466.178 384.128C465.991 382.805 465.395 381.574 464.477 380.605C463.557 379.635 462.359 378.975 461.048 378.717C456.143 377.667 451.666 375.169 448.196 371.547C444.726 367.925 442.423 363.346 441.585 358.403C441.152 355.874 441.287 353.279 441.98 350.808C442.674 348.337 443.907 346.05 445.591 344.115C447.278 342.178 449.371 340.641 451.724 339.614C454.076 338.584 456.627 338.091 459.195 338.171H478.079C483.852 338.328 489.391 340.485 493.75 344.271C498.109 348.057 501.016 353.24 501.978 358.933L509.922 415.227C510.366 417.762 510.238 420.363 509.55 422.842C508.864 425.322 507.631 427.617 505.945 429.562C504.258 431.506 502.16 433.049 499.802 434.082C497.444 435.113 494.886 435.606 492.312 435.526Z" fill="#EDF9FF"/>
<path d="M487.545 357.212C487.638 357.746 487.611 358.292 487.467 358.814C487.323 359.336 487.062 359.821 486.707 360.23C486.352 360.638 485.91 360.963 485.415 361.179C484.918 361.394 484.38 361.499 483.837 361.481H463.877C462.683 361.456 461.535 361.016 460.629 360.238C459.723 359.459 459.115 358.389 458.911 357.212L458.813 356.55C458.716 356.018 458.741 355.472 458.883 354.948C459.024 354.426 459.283 353.943 459.637 353.534C459.99 353.126 460.432 352.799 460.929 352.583C461.424 352.368 461.962 352.265 462.505 352.283H482.463C483.656 352.314 484.803 352.756 485.707 353.532C486.611 354.311 487.219 355.377 487.428 356.55L487.545 357.212Z" fill="#66BCFF"/>
<path d="M478.954 365.204C479.044 365.738 479.015 366.286 478.869 366.808C478.721 367.332 478.46 367.815 478.105 368.226C477.75 368.634 477.306 368.961 476.809 369.179C476.312 369.397 475.773 369.503 475.229 369.487H474.668C473.47 369.462 472.32 369.021 471.414 368.238C470.508 367.455 469.902 366.383 469.703 365.204L467.369 348.561C467.279 348.025 467.307 347.476 467.453 346.955C467.601 346.433 467.862 345.948 468.217 345.539C468.573 345.128 469.017 344.804 469.514 344.584C470.011 344.366 470.549 344.261 471.091 344.276H471.687C472.885 344.302 474.035 344.744 474.941 345.525C475.847 346.307 476.453 347.38 476.653 348.561L478.954 365.204Z" fill="#66BCFF"/>
<path d="M481.408 390.282C481.445 390.506 481.431 390.734 481.369 390.949C481.308 391.167 481.199 391.366 481.049 391.537C480.901 391.705 480.716 391.839 480.508 391.929C480.301 392.018 480.077 392.061 479.851 392.052H479.621C479.126 392.042 478.653 391.861 478.279 391.537C477.908 391.214 477.661 390.768 477.585 390.282L476.607 383.367C476.57 383.147 476.585 382.921 476.644 382.705C476.706 382.489 476.815 382.29 476.961 382.12C477.108 381.951 477.291 381.818 477.495 381.727C477.7 381.637 477.922 381.592 478.146 381.598H478.312C478.807 381.606 479.284 381.789 479.658 382.111C480.034 382.434 480.284 382.88 480.365 383.367L481.408 390.282Z" fill="#ADB4FF"/>
<path d="M480.993 412.07C479.8 412.047 478.649 411.61 477.741 410.829C476.835 410.05 476.229 408.98 476.03 407.801L475.946 407.238C475.857 406.706 475.888 406.159 476.036 405.64C476.186 405.12 476.447 404.639 476.802 404.232C477.16 403.826 477.602 403.503 478.097 403.287C478.592 403.072 479.13 402.969 479.67 402.987H480.25C481.41 403.018 482.526 403.441 483.413 404.191C484.301 404.939 484.907 405.968 485.133 407.106L485.231 407.801C485.326 408.335 485.299 408.881 485.153 409.403C485.01 409.925 484.751 410.408 484.395 410.817C484.04 411.225 483.598 411.55 483.101 411.768C482.604 411.984 482.066 412.086 481.523 412.07H480.993Z" fill="#66BCFF"/>
<path d="M483.821 428.199H483.275C482.077 428.172 480.926 427.731 480.02 426.95C479.114 426.167 478.51 425.093 478.309 423.914L478.21 423.203V422.905C478.163 422.389 478.227 421.87 478.395 421.381C478.564 420.89 478.835 420.442 479.19 420.066C479.546 419.688 479.977 419.392 480.456 419.193C480.935 418.995 481.45 418.901 481.968 418.917H482.531C483.714 418.94 484.856 419.369 485.76 420.136C486.666 420.902 487.278 421.956 487.494 423.121L487.578 423.831C487.689 424.376 487.675 424.939 487.535 425.477C487.396 426.015 487.135 426.514 486.773 426.938C486.409 427.359 485.955 427.692 485.444 427.909C484.932 428.129 484.376 428.228 483.821 428.199Z" fill="#FF78B9"/>
<path d="M481.621 412.07H481.058C479.862 412.047 478.712 411.61 477.806 410.829C476.898 410.05 476.292 408.978 476.092 407.801L476.01 407.238C475.922 406.706 475.953 406.159 476.101 405.64C476.248 405.12 476.509 404.639 476.865 404.232C477.222 403.826 477.664 403.503 478.159 403.287C478.656 403.072 479.192 402.969 479.733 402.987H480.312C481.473 403.018 482.588 403.441 483.476 404.191C484.363 404.939 484.969 405.968 485.195 407.106L485.294 407.801C485.386 408.331 485.362 408.875 485.218 409.395C485.076 409.915 484.819 410.396 484.468 410.804C484.117 411.213 483.679 411.538 483.186 411.755C482.693 411.975 482.159 412.082 481.621 412.07Z" fill="#5865F2"/>
<path d="M491.785 420.076C490.587 420.052 489.437 419.608 488.531 418.827C487.625 418.044 487.019 416.972 486.82 415.791V415.23C486.727 414.698 486.756 414.153 486.902 413.634C487.048 413.114 487.309 412.635 487.664 412.228C488.019 411.824 488.461 411.501 488.956 411.288C489.451 411.074 489.988 410.973 490.528 410.994H491.107C492.278 411.01 493.408 411.427 494.31 412.173C495.214 412.919 495.834 413.95 496.071 415.096L496.171 415.791C496.262 416.327 496.233 416.875 496.085 417.397C495.939 417.921 495.678 418.404 495.323 418.813C494.965 419.224 494.524 419.548 494.026 419.768C493.529 419.986 492.989 420.091 492.447 420.076H491.785Z" fill="#66BCFF"/>
<path d="M492.348 420.076H491.785C490.587 420.052 489.437 419.608 488.531 418.827C487.625 418.044 487.019 416.972 486.82 415.791V415.23C486.727 414.698 486.756 414.153 486.902 413.634C487.048 413.114 487.309 412.635 487.664 412.228C488.019 411.824 488.461 411.501 488.956 411.288C489.451 411.074 489.988 410.973 490.528 410.994H491.107C492.278 411.01 493.408 411.427 494.31 412.173C495.214 412.919 495.834 413.95 496.071 415.096L496.171 415.791C496.264 416.335 496.233 416.892 496.081 417.422C495.929 417.952 495.658 418.443 495.29 418.854C494.924 419.265 494.468 419.589 493.959 419.801C493.449 420.013 492.899 420.107 492.348 420.076Z" fill="#5865F2"/>
<path d="M472.964 420.19H472.401C471.202 420.176 470.047 419.736 469.139 418.954C468.231 418.169 467.627 417.09 467.438 415.907L467.321 415.194V414.896C467.274 414.383 467.337 413.863 467.506 413.374C467.674 412.885 467.945 412.439 468.303 412.063C468.658 411.687 469.09 411.391 469.568 411.196C470.047 410.999 470.561 410.909 471.078 410.927H471.69C472.878 410.942 474.022 411.371 474.928 412.137C475.834 412.903 476.444 413.961 476.656 415.128L476.754 415.839C476.861 416.386 476.843 416.949 476.699 417.487C476.553 418.025 476.29 418.522 475.925 418.941C475.559 419.36 475.101 419.691 474.589 419.909C474.076 420.125 473.521 420.221 472.964 420.19Z" fill="#FF78B9"/>
<path d="M297.645 413.888L287.119 408.017C295.39 394.501 304.46 381.493 314.278 369.058C294.948 376.104 274.556 384.839 252.065 384.839H214.478C212.245 380.239 211.633 375.492 211.633 368.295L257.509 351.638L274.922 355.112L275.433 360.074C291.986 355.84 309.246 351.01 321.776 348.097C337.383 344.475 342.696 352.284 333.626 365.501C316.116 390.978 297.645 413.888 297.645 413.888Z" fill="#29CC7A"/>
<path d="M224.89 363.946C224.89 373.127 224.89 379.578 229.259 383.349C230.375 384.29 231.786 384.808 233.247 384.806H237.748C226.743 383.019 226.743 377.063 226.743 363.946V363.085C226.765 362.976 226.765 362.863 226.743 362.754L224.939 363.416L224.89 363.946Z" fill="#15AD75"/>
<path d="M297.646 410.099C297.405 410.097 297.173 410.015 296.984 409.869C296.871 409.783 296.774 409.678 296.703 409.555C296.631 409.434 296.585 409.298 296.567 409.158C296.548 409.017 296.559 408.875 296.596 408.737C296.633 408.602 296.698 408.474 296.785 408.363C311.681 388.81 323.613 372.05 328.86 363.547C329.638 362.29 332.005 358.469 331.294 357.591C330.813 356.981 328.1 356.121 313.318 361.117C308.536 362.771 303.985 364.326 299.731 365.815C282.784 371.736 271.596 375.641 267.177 373.92C262.427 372.05 262.758 367.8 263.22 361.926C263.354 360.371 263.485 358.619 263.551 356.649C263.551 356.365 263.666 356.092 263.868 355.888C264.069 355.687 264.342 355.574 264.628 355.574C264.913 355.574 265.186 355.687 265.388 355.888C265.591 356.092 265.704 356.365 265.704 356.649C265.704 358.619 265.505 360.42 265.373 362.027C264.909 368.081 264.843 370.596 267.97 371.82C271.629 373.258 283.711 369.041 299.02 363.681C303.272 362.191 307.825 360.603 312.624 358.982C327.42 354.019 331.458 354.251 332.997 356.153C334.538 358.056 332.849 361.117 330.698 364.591C325.419 373.16 313.386 389.966 298.506 409.588C298.414 409.736 298.289 409.859 298.139 409.947C297.989 410.038 297.82 410.089 297.646 410.099Z" fill="#15AD75"/>
<path d="M230.053 304.16C222.363 292.2 215.993 279.442 211.054 266.111C210.37 263.88 210.22 261.52 210.618 259.221C211.015 256.922 211.945 254.748 213.336 252.877C221.264 243.398 231.542 238.301 245.395 235.92C246.935 235.743 248.482 236.183 249.699 237.144C266.068 251.437 270.965 267.683 273.714 283.464C273.827 284.368 273.69 285.287 273.316 286.119C272.942 286.951 272.348 287.664 271.594 288.179C267.664 290.76 263.483 292.939 259.116 294.679L260.772 306.724L230.053 304.16Z" fill="#FFD751"/>
<path d="M245.891 263.827C253.968 264.595 261.993 265.844 269.923 267.566C270.783 267.748 272.819 268.262 274.358 268.659C274.52 268.712 274.666 268.804 274.781 268.93C274.896 269.055 274.979 269.207 275.022 269.371C275.063 269.536 275.061 269.71 275.018 269.875C274.974 270.039 274.89 270.189 274.771 270.312L273.844 271.14L275.599 277.757C276.139 279.814 275.983 281.991 275.153 283.947C274.325 285.905 272.869 287.534 271.016 288.576L266.993 290.842L245.891 263.827Z" fill="#FFD751"/>
<path d="M248.873 270.663C250.95 269.215 250.549 265.059 247.977 261.381C245.407 257.704 241.642 255.898 239.567 257.347C237.49 258.797 237.89 262.953 240.462 266.63C243.032 270.308 246.798 272.113 248.873 270.663Z" fill="#FF78B9"/>
<path d="M262.076 256.78C260.803 255.689 259.346 255.291 258.767 255.903C258.188 256.515 258.502 257.228 259.743 258.171C260.26 258.58 260.737 259.04 261.166 259.543C262.109 260.601 262.904 260.404 263.35 259.89C263.798 259.377 263.334 257.889 262.076 256.78Z" fill="black"/>
<path d="M219.164 247.167C217.377 229.798 219.164 224.008 222.873 219.045C226.579 214.082 228.631 215.44 228.035 222.123C227.6 227.365 227.633 232.635 228.134 237.871C231.326 229.685 235.988 222.151 241.888 215.637C243.595 213.533 245.904 212.003 248.509 211.253C251.007 210.624 252.447 212.114 251.702 214.562C250.428 218.813 247.25 225.43 238.86 237.458L239.704 242.239L219.164 247.167Z" fill="#FFD751"/>
<path d="M269.608 314.431C278.777 317.525 272.305 346.276 272.305 346.276L273.63 347.287C274.678 348.086 275.416 349.224 275.718 350.506C276.02 351.788 275.866 353.134 275.286 354.317L274.904 355.077C268.466 355.077 264.246 355.706 255.706 361.828C247.166 367.948 241.473 368.262 232.535 368.262H211.631V361.199C203.705 358.04 203.076 354.235 206.038 349.387C207.693 346.591 210.341 342.654 212.244 339.809C213.735 337.553 214.284 334.803 213.768 332.148C212.667 327.298 212.548 322.275 213.419 317.377L236.309 311.206L265.438 309.949L269.608 314.431Z" fill="#2331B5"/>
<path d="M268.977 339.715C271.725 338.988 272.681 333.593 271.111 327.666C269.542 321.741 266.041 317.526 263.292 318.253C260.545 318.98 259.59 324.375 261.16 330.3C262.729 336.227 266.23 340.442 268.977 339.715Z" fill="black"/>
<path d="M283.014 408.744C285.678 405.997 291.289 401.433 291.289 401.433C294.88 401.433 300.242 402.094 302.676 411.969C304.661 420.092 305.571 423.55 305.571 423.55C316.71 425.551 316.759 428.694 315.253 432.813V434.699C315.253 434.923 315.165 435.139 315.006 435.297C314.848 435.455 314.633 435.543 314.409 435.543H295.79L283.014 408.744Z" fill="white"/>
<path d="M314.347 435.527C314.57 435.527 314.784 435.439 314.942 435.28C315.1 435.122 315.191 434.907 315.191 434.683V432.797C307.826 432.797 302.478 433.526 299.797 428.745C296.839 423.053 294.275 417.167 292.118 411.127C291.126 408.23 289.024 404.956 285.961 405.932C284.852 406.924 283.794 407.916 282.982 408.744L295.793 435.527H314.347Z" fill="#FF78B9"/>
<path d="M306.45 435.526C304.482 435.547 302.541 435.07 300.805 434.142C299.069 433.213 297.596 431.863 296.52 430.216C293.19 424.651 290.523 418.715 288.575 412.532C286.772 407.221 282.186 406.344 281.773 411.985C281.41 417.031 284.255 421.912 288.791 433.143C289.068 433.844 289.549 434.446 290.172 434.871C290.794 435.294 291.53 435.522 292.284 435.526H306.45Z" fill="black"/>
<path d="M269.61 314.431C275.452 316.383 286.641 320.206 286.641 320.206C288.444 296.384 295.612 289.534 304.051 270.577C310.093 257.044 312.957 250.906 314.097 248.492C314.284 248.094 314.582 247.757 314.956 247.522C315.328 247.288 315.759 247.165 316.201 247.169H316.862C317.197 247.167 317.528 247.239 317.834 247.377C318.138 247.514 318.409 247.718 318.629 247.97C318.849 248.223 319.013 248.519 319.108 248.841C319.202 249.162 319.227 249.501 319.18 249.831C318.124 256.214 316.423 262.472 314.097 268.508C319.262 264.985 321.429 265.067 323.897 268.508C329.671 265.531 331.841 265.449 333.825 269.932C335.812 274.414 335.631 275.406 334.505 279.063C333.38 282.718 331.808 283.032 329.341 283.032C329.341 308.03 327.769 317.509 315.985 334.316C305.426 349.37 304.929 347.552 290.63 343.018C282.355 340.405 274.359 337.442 268.998 335.408C265.943 334.283 263.379 332.122 261.756 329.301C260.131 326.48 259.55 323.179 260.11 319.974C261.037 315.541 264.1 312.662 269.61 314.431Z" fill="#FFD751"/>
<path d="M269.608 314.432C269.608 314.432 270.37 313.505 271.264 312.232C271.543 311.831 271.734 311.373 271.826 310.892C271.919 310.412 271.909 309.918 271.798 309.442C271.689 308.963 271.479 308.515 271.183 308.125C270.89 307.733 270.516 307.408 270.088 307.17C240.596 290.942 230.186 289.073 213.932 289.073C203.523 289.073 204.003 291.752 204.979 296.682C197.515 303.63 197.647 306.03 202.844 312.827C208.041 319.627 209.663 322.306 214.429 322.306C219.195 322.306 230.731 322.44 240.612 317.345C250.494 312.248 255.309 309.635 269.608 314.432Z" fill="white"/>
<path d="M269.225 265.531C257.211 263.43 244.996 262.222 244.864 262.222C244.741 262.21 244.618 262.22 244.501 262.253C244.383 262.288 244.273 262.345 244.178 262.421C244.082 262.499 244.003 262.594 243.944 262.703C243.886 262.809 243.849 262.929 243.837 263.05C243.825 263.173 243.835 263.298 243.87 263.42C243.905 263.539 243.964 263.65 244.042 263.746C244.121 263.843 244.217 263.925 244.328 263.982C244.437 264.042 244.558 264.079 244.681 264.091C244.815 264.091 257.657 265.431 269.921 267.631C269.712 266.916 269.48 266.216 269.225 265.531Z" fill="black"/>
<path d="M243.293 265.63C243.125 265.634 242.961 265.593 242.813 265.515C242.558 265.384 242.365 265.158 242.275 264.884C242.184 264.613 242.207 264.315 242.334 264.059C242.883 262.99 243.509 261.963 244.204 260.981C244.378 260.753 244.633 260.601 244.918 260.558C245.202 260.515 245.492 260.585 245.726 260.751C245.956 260.924 246.106 261.182 246.147 261.468C246.188 261.751 246.114 262.041 245.942 262.273C245.319 263.148 244.764 264.073 244.286 265.034C244.193 265.217 244.052 265.369 243.875 265.476C243.7 265.581 243.497 265.634 243.293 265.63Z" fill="black"/>
<path d="M293.804 323.399H293.506L286.322 321.232C286.049 321.149 285.817 320.962 285.681 320.712C285.544 320.461 285.513 320.165 285.595 319.892C285.675 319.617 285.862 319.387 286.115 319.249C286.365 319.114 286.661 319.083 286.934 319.163L294.119 321.281C294.377 321.345 294.603 321.505 294.753 321.727C294.901 321.949 294.963 322.218 294.922 322.483C294.883 322.748 294.747 322.988 294.54 323.157C294.332 323.325 294.071 323.411 293.804 323.399Z" fill="black"/>
<path d="M225.171 245.713C224.941 246.424 224.791 246.837 224.774 246.87C224.709 247.055 224.587 247.215 224.427 247.328C224.267 247.441 224.076 247.5 223.881 247.498H223.583C223.347 247.42 223.149 247.25 223.038 247.028C222.927 246.804 222.909 246.545 222.987 246.309C223.119 245.995 225.403 239.345 227.488 234.529C227.56 234.348 227.696 234.202 227.868 234.116C227.868 235.357 228.018 236.614 228.133 237.855C228.133 237.789 225.884 243.745 225.171 245.713Z" fill="#FFC619"/>
<path d="M326.164 315.177C326.556 314.021 326.665 312.79 326.484 311.584C326.303 310.378 325.835 309.234 325.12 308.246C324.664 307.644 324.103 307.128 323.466 306.723C322.125 305.976 320.607 305.608 319.072 305.659C317.537 305.713 316.046 306.183 314.76 307.021C315.744 301.961 316.023 296.788 315.588 291.653C315.074 288.078 313.038 287.17 311.88 286.971C308.338 286.309 303.605 290.032 299.467 296.581C298.707 293.058 297.532 291.238 295.86 290.89C295.393 290.794 294.906 290.857 294.481 291.071C294.054 291.283 293.713 291.634 293.509 292.065C292.93 293.323 292.384 294.58 291.854 295.887C294.006 292.743 295.165 292.579 295.479 292.743C295.794 292.91 297.234 293.538 298.043 299.361C298.066 299.556 298.15 299.739 298.286 299.882C298.419 300.024 298.596 300.121 298.789 300.156C298.984 300.195 299.188 300.172 299.368 300.088C299.551 300.006 299.701 299.866 299.798 299.691C304.317 291.552 309.067 288.326 311.532 288.791C313.005 289.072 313.535 290.627 313.718 291.901C314.678 298.518 312.494 308.957 312.459 309.072C312.42 309.271 312.447 309.478 312.533 309.663C312.619 309.848 312.761 310 312.94 310.097C313.118 310.195 313.322 310.232 313.523 310.201C313.722 310.171 313.907 310.076 314.049 309.932C316.498 307.483 320.105 306.789 322.455 308.279C325.486 310.23 325.767 315.292 323.316 322.191C324.426 319.921 325.377 317.577 326.164 315.177Z" fill="#FFE591"/>
<path d="M323.96 273.291C323.786 273.291 323.613 273.248 323.457 273.167C323.301 273.087 323.167 272.97 323.067 272.826C321.047 269.915 320.815 269.883 316.91 271.949C316.702 272.062 316.464 272.105 316.232 272.068C315.997 272.033 315.782 271.92 315.619 271.752C313.286 269.352 312.589 269.749 309.61 271.438L308.717 271.949C308.468 272.064 308.183 272.081 307.922 271.996C307.661 271.91 307.441 271.729 307.307 271.489C307.172 271.249 307.135 270.967 307.201 270.7C307.264 270.431 307.429 270.199 307.659 270.047L308.552 269.552C311.465 267.896 313.518 266.772 316.595 269.683C320.651 267.614 322.173 267.764 324.87 271.586C325.031 271.824 325.09 272.114 325.039 272.397C324.985 272.678 324.825 272.927 324.589 273.091C324.406 273.223 324.186 273.293 323.96 273.291Z" fill="#FFB119"/>
<path d="M331.261 282.668C331.261 279.593 330.83 275.026 330.813 274.827C330.805 274.704 330.772 274.585 330.717 274.474C330.661 274.363 330.585 274.266 330.491 274.186C330.396 274.106 330.287 274.044 330.17 274.007C330.051 273.97 329.928 273.956 329.805 273.968C329.681 273.978 329.56 274.013 329.449 274.071C329.338 274.126 329.24 274.206 329.162 274.301C329.082 274.398 329.02 274.506 328.983 274.626C328.946 274.745 328.934 274.87 328.944 274.993C328.944 274.993 329.34 279.675 329.392 282.701C329.39 282.841 329.423 282.979 329.49 283.1C330.045 283.106 330.598 283.061 331.146 282.966C331.202 282.876 331.241 282.775 331.261 282.668Z" fill="black"/>
<path d="M332.533 278.981H330.117C329.984 278.997 329.848 278.987 329.719 278.948C329.591 278.909 329.472 278.843 329.371 278.755C329.269 278.667 329.189 278.558 329.133 278.434C329.078 278.313 329.049 278.18 329.049 278.046C329.049 277.911 329.078 277.779 329.133 277.656C329.189 277.533 329.269 277.424 329.371 277.335C329.472 277.247 329.591 277.181 329.719 277.142C329.848 277.103 329.984 277.093 330.117 277.111H332.533C332.667 277.093 332.802 277.103 332.93 277.142C333.059 277.181 333.178 277.247 333.279 277.335C333.379 277.424 333.462 277.533 333.517 277.656C333.573 277.779 333.601 277.911 333.601 278.046C333.601 278.18 333.573 278.313 333.517 278.434C333.462 278.558 333.379 278.667 333.279 278.755C333.178 278.843 333.059 278.909 332.93 278.948C332.802 278.987 332.667 278.997 332.533 278.981Z" fill="black"/>
<path d="M299.286 342.573H298.822C298.67 342.591 298.514 342.577 298.366 342.532C298.218 342.486 298.081 342.408 297.966 342.306C297.85 342.205 297.756 342.078 297.692 341.938C297.629 341.796 297.596 341.644 297.596 341.488C297.596 341.334 297.629 341.182 297.692 341.04C297.756 340.898 297.85 340.773 297.966 340.67C298.081 340.568 298.218 340.492 298.366 340.446C298.514 340.399 298.67 340.387 298.822 340.405C301.043 340.399 303.258 340.206 305.443 339.826C305.583 339.801 305.725 339.803 305.863 339.834C306.002 339.863 306.132 339.92 306.249 340.001C306.364 340.083 306.462 340.185 306.538 340.305C306.616 340.422 306.668 340.555 306.692 340.695C306.717 340.833 306.715 340.976 306.684 341.114C306.656 341.252 306.598 341.383 306.518 341.498C306.436 341.615 306.333 341.714 306.214 341.79C306.097 341.866 305.963 341.919 305.823 341.944C303.664 342.322 301.478 342.534 299.286 342.573Z" fill="#FFC619"/>
<path d="M229.67 365.119C217.258 363.466 211.762 361.282 211.713 361.249V363.25C217.5 365.126 223.468 366.383 229.52 367.005H229.637C229.867 366.993 230.085 366.897 230.25 366.734C230.414 366.57 230.51 366.354 230.525 366.122C230.539 365.892 230.469 365.664 230.328 365.483C230.184 365.3 229.98 365.177 229.752 365.136L229.67 365.119Z" fill="black"/>
<path d="M268.254 365.6C267.991 365.606 267.736 365.512 267.541 365.335C267.434 365.242 267.348 365.127 267.284 365.002C267.221 364.875 267.184 364.735 267.175 364.595C267.165 364.453 267.186 364.312 267.231 364.176C267.276 364.043 267.348 363.919 267.443 363.813C269.567 361.602 272.205 359.948 275.122 358.999C275.257 358.958 275.401 358.944 275.541 358.958C275.683 358.97 275.82 359.014 275.946 359.079C276.071 359.147 276.182 359.237 276.272 359.346C276.361 359.457 276.428 359.583 276.471 359.718C276.513 359.854 276.527 359.998 276.513 360.137C276.498 360.279 276.457 360.417 276.389 360.542C276.324 360.667 276.233 360.778 276.122 360.869C276.013 360.957 275.886 361.025 275.75 361.066C273.246 361.914 270.976 363.342 269.131 365.236C269.022 365.359 268.887 365.458 268.735 365.522C268.583 365.583 268.418 365.612 268.254 365.6Z" fill="black"/>
<path d="M315.206 370.132C314.997 370.134 314.793 370.075 314.617 369.964C314.442 369.853 314.3 369.693 314.212 369.504C314.152 369.376 314.118 369.239 314.111 369.097C314.105 368.955 314.128 368.813 314.177 368.682C314.226 368.548 314.302 368.427 314.399 368.324C314.496 368.222 314.613 368.139 314.742 368.082C319.06 366.2 323.227 363.988 327.204 361.465C327.444 361.309 327.734 361.251 328.013 361.302C328.295 361.356 328.543 361.514 328.71 361.746C328.87 361.985 328.927 362.278 328.87 362.56C328.814 362.841 328.65 363.09 328.412 363.25C324.346 365.851 320.079 368.125 315.652 370.05C315.51 370.11 315.358 370.136 315.206 370.132Z" fill="black"/>
<path d="M323.133 369.389C322.985 369.389 319.277 369.29 317.274 369.14C317.132 369.13 316.994 369.091 316.869 369.027C316.741 368.963 316.628 368.875 316.536 368.768C316.444 368.659 316.374 368.536 316.331 368.4C316.285 368.265 316.269 368.123 316.281 367.981C316.306 367.698 316.442 367.435 316.657 367.25C316.875 367.065 317.154 366.971 317.44 366.989C319.375 367.123 323.166 367.238 323.198 367.238C323.484 367.238 323.757 367.351 323.961 367.552C324.162 367.755 324.275 368.029 324.275 368.314C324.275 368.598 324.162 368.871 323.961 369.074C323.757 369.276 323.484 369.389 323.198 369.389H323.133Z" fill="black"/>
<path d="M254.282 307.517C236.855 306.36 216.217 305.648 215.968 305.631C215.827 305.627 215.689 305.596 215.56 305.537C215.43 305.479 215.315 305.397 215.219 305.294C215.12 305.191 215.046 305.07 214.995 304.937C214.945 304.805 214.923 304.664 214.927 304.524C214.929 304.382 214.96 304.24 215.015 304.111C215.073 303.981 215.157 303.864 215.26 303.768C215.362 303.669 215.486 303.595 215.619 303.546C215.751 303.497 215.892 303.474 216.034 303.48C216.217 303.48 232.469 304.043 248.325 304.986C233.166 298.568 221.647 295.706 206.105 297.262C205.819 297.29 205.534 297.204 205.313 297.021C205.091 296.84 204.95 296.578 204.921 296.294C204.893 296.008 204.979 295.723 205.161 295.501C205.342 295.279 205.604 295.139 205.89 295.111C223.781 293.323 236.393 297.194 254.796 305.467C255.018 305.567 255.197 305.742 255.306 305.96C255.416 306.178 255.447 306.424 255.398 306.662C255.349 306.901 255.219 307.116 255.032 307.271C254.843 307.427 254.609 307.513 254.367 307.517H254.282Z" fill="#BAE8FF"/>
<path d="M201.057 384.839H273.086C274.117 384.839 275.105 385.248 275.835 385.977C276.564 386.706 276.975 387.694 276.975 388.726V435.526H197.168V388.759C197.164 388.247 197.261 387.738 197.454 387.261C197.648 386.786 197.934 386.353 198.296 385.989C198.657 385.624 199.087 385.336 199.561 385.137C200.035 384.94 200.544 384.839 201.057 384.839Z" fill="#8CD9FF"/>
<path d="M269.776 384.839H273.085C274.117 384.839 275.107 385.248 275.836 385.977C276.565 386.706 276.974 387.694 276.974 388.726V435.526H265.969V388.759C265.961 387.738 266.355 386.751 267.066 386.018C267.779 385.285 268.753 384.859 269.776 384.839Z" fill="#45AAF7"/>
<path d="M207.761 420.639H255.311C256.162 420.639 256.979 420.976 257.581 421.578C258.183 422.18 258.52 422.998 258.52 423.848V435.527H204.566V423.848C204.566 423 204.902 422.186 205.501 421.584C206.099 420.982 206.912 420.643 207.761 420.639Z" fill="#45AAF7"/>
<path d="M211.052 384.839H208.884V435.526H211.052V384.839Z" fill="#5865F2"/>
<path d="M254.198 384.839H252.03V435.526H254.198V384.839Z" fill="#5865F2"/>
<path d="M255.821 388.726H207.228C205.747 388.726 204.547 389.926 204.547 391.407V408.711C204.547 410.19 205.747 411.39 207.228 411.39H255.821C257.3 411.39 258.502 410.19 258.502 408.711V391.407C258.502 389.926 257.3 388.726 255.821 388.726Z" fill="black"/>
<path d="M264.959 392.383C264.672 392.383 264.396 392.496 264.193 392.698C263.987 392.899 263.872 393.172 263.866 393.458C263.87 393.747 263.987 394.023 264.191 394.226C264.396 394.429 264.672 394.547 264.959 394.551H276.909V392.383H264.959Z" fill="#5865F2"/>
<path d="M263.867 398.155C263.871 398.445 263.986 398.72 264.192 398.924C264.395 399.127 264.67 399.244 264.958 399.248H276.908V397.032H264.958C264.812 397.032 264.668 397.06 264.533 397.118C264.399 397.173 264.276 397.258 264.175 397.363C264.073 397.467 263.992 397.593 263.939 397.728C263.888 397.864 263.861 398.01 263.867 398.155Z" fill="#5865F2"/>
<path d="M263.866 402.854C263.87 403.142 263.987 403.417 264.191 403.623C264.396 403.826 264.672 403.943 264.959 403.947H276.909V401.78H264.959C264.672 401.78 264.396 401.893 264.193 402.094C263.987 402.293 263.872 402.569 263.866 402.854Z" fill="#5865F2"/>
<path d="M199.137 393.457C199.14 393.601 199.113 393.742 199.06 393.874C199.007 394.007 198.928 394.127 198.828 394.229C198.728 394.33 198.609 394.41 198.477 394.466C198.346 394.521 198.204 394.55 198.062 394.55H197.168V392.382H198.062C198.204 392.38 198.344 392.407 198.476 392.46C198.607 392.514 198.727 392.592 198.827 392.693C198.928 392.793 199.007 392.913 199.06 393.044C199.113 393.175 199.14 393.315 199.137 393.457Z" fill="#5865F2"/>
<path d="M199.137 398.155C199.14 398.299 199.113 398.441 199.06 398.573C199.007 398.706 198.928 398.825 198.828 398.928C198.728 399.029 198.609 399.109 198.477 399.164C198.346 399.22 198.204 399.248 198.062 399.248H197.168V397.032H198.062C198.207 397.032 198.351 397.06 198.485 397.118C198.619 397.176 198.74 397.258 198.84 397.363C198.941 397.469 199.019 397.593 199.07 397.73C199.121 397.866 199.144 398.012 199.137 398.155Z" fill="#5865F2"/>
<path d="M199.137 402.854C199.14 402.998 199.113 403.14 199.06 403.271C199.007 403.403 198.928 403.524 198.828 403.627C198.728 403.727 198.609 403.808 198.477 403.863C198.346 403.919 198.204 403.947 198.062 403.947H197.168V401.78H198.062C198.204 401.778 198.344 401.805 198.476 401.856C198.607 401.909 198.727 401.989 198.827 402.09C198.928 402.191 199.007 402.31 199.06 402.441C199.113 402.573 199.14 402.713 199.137 402.854Z" fill="#5865F2"/>
<path d="M241.97 390.365H210.226C209.467 390.365 208.852 390.979 208.852 391.738V406.759C208.852 407.517 209.467 408.131 210.226 408.131H241.97C242.728 408.131 243.342 407.517 243.342 406.759V391.738C243.342 390.979 242.728 390.365 241.97 390.365Z" fill="#FFF4B3"/>
<path d="M255.36 408.132H246.704C246.164 408.132 245.727 408.57 245.727 409.108V410.415C245.727 410.955 246.164 411.391 246.704 411.391H255.36C255.9 411.391 256.335 410.955 256.335 410.415V409.108C256.335 408.57 255.9 408.132 255.36 408.132Z" fill="#FF78B9"/>
<path d="M221.596 392.383C221.596 395.014 222.642 397.539 224.503 399.4C226.367 401.264 228.892 402.309 231.525 402.309C234.159 402.309 236.686 401.264 238.547 399.4C240.41 397.539 241.456 395.014 241.456 392.383C241.458 391.705 241.392 391.029 241.257 390.365H221.777C221.65 391.029 221.588 391.705 221.596 392.383Z" fill="#29CC7A"/>
<path d="M211.846 408.132H228.049C227.132 406.838 225.916 405.782 224.507 405.055C223.097 404.325 221.534 403.945 219.948 403.945C218.36 403.945 216.797 404.325 215.387 405.055C213.978 405.782 212.764 406.838 211.846 408.132Z" fill="#29CC7A"/>
<path d="M161.55 126.174C158.935 124.493 156.709 122.272 155.022 119.663C153.335 117.052 152.226 114.11 151.769 111.037L150.114 100.449C150.074 100.2 149.948 99.9743 149.757 99.812C149.566 99.6476 149.323 99.5572 149.071 99.5552C148.817 99.5572 148.572 99.6456 148.378 99.8099C148.185 99.9722 148.055 100.2 148.012 100.449L146.357 111.037C145.9 114.11 144.791 117.052 143.104 119.663C141.417 122.272 139.191 124.493 136.575 126.174L135.202 127.051C135.054 127.149 134.933 127.281 134.85 127.437C134.766 127.593 134.722 127.768 134.722 127.945C134.722 128.121 134.766 128.294 134.85 128.45C134.933 128.606 135.054 128.74 135.202 128.836L136.575 129.73C139.19 131.408 141.416 133.625 143.103 136.232C144.79 138.841 145.9 141.779 146.357 144.85L148.012 155.438C148.051 155.691 148.179 155.921 148.374 156.087C148.568 156.256 148.815 156.346 149.071 156.348C149.325 156.346 149.57 156.254 149.762 156.087C149.953 155.919 150.078 155.689 150.114 155.438L151.769 144.85C152.226 141.779 153.335 138.841 155.022 136.232C156.709 133.625 158.935 131.408 161.55 129.73L162.924 128.836C163.071 128.74 163.192 128.606 163.276 128.45C163.359 128.294 163.403 128.121 163.404 127.945C163.403 127.768 163.359 127.593 163.276 127.437C163.192 127.281 163.071 127.149 162.924 127.051L161.55 126.174Z" fill="#404EED"/>
<path d="M77.1485 306.116C75.6026 305.118 74.2866 303.803 73.2879 302.256C72.2893 300.711 71.6307 298.971 71.3558 297.151L70.4291 290.881C70.4021 290.733 70.3245 290.6 70.2099 290.503C70.095 290.407 69.9502 290.353 69.8 290.351C69.65 290.353 69.5052 290.407 69.3904 290.503C69.2755 290.6 69.1981 290.733 69.1712 290.881L68.2442 297.151C67.9694 298.971 67.3107 300.711 66.3121 302.256C65.3135 303.803 63.9976 305.118 62.4517 306.116L61.624 306.646C61.5388 306.706 61.4689 306.786 61.42 306.878C61.3711 306.969 61.3446 307.072 61.3428 307.176C61.3446 307.281 61.3711 307.382 61.42 307.474C61.4689 307.567 61.5388 307.645 61.624 307.706L62.4517 308.234C63.9976 309.233 65.3135 310.55 66.3121 312.097C67.3107 313.641 67.9694 315.382 68.2442 317.202L69.1712 323.455C69.1946 323.605 69.2706 323.743 69.3856 323.841C69.5009 323.942 69.6476 323.998 69.8 324C69.9525 323.998 70.0993 323.942 70.2144 323.841C70.3296 323.743 70.4056 323.605 70.4291 323.455L71.3558 317.202C71.6307 315.382 72.2893 313.641 73.2879 312.097C74.2866 310.55 75.6026 309.233 77.1485 308.234L77.976 307.706C78.0613 307.645 78.1313 307.567 78.1802 307.474C78.2291 307.382 78.2554 307.281 78.2575 307.176C78.2554 307.072 78.2291 306.969 78.1802 306.878C78.1313 306.786 78.0613 306.706 77.976 306.646L77.1485 306.116Z" fill="#FFD751"/>
</g>
</svg>
